<?xml version="1.0" encoding="UTF-8" standalone="no"?>
<!-- Created with Inkscape (http://www.inkscape.org/) -->

<svg
   xmlns:dc="http://purl.org/dc/elements/1.1/"
   xmlns:cc="http://creativecommons.org/ns#"
   xmlns:rdf="http://www.w3.org/1999/02/22-rdf-syntax-ns#"
   xmlns:svg="http://www.w3.org/2000/svg"
   xmlns="http://www.w3.org/2000/svg"
   xmlns:sodipodi="http://sodipodi.sourceforge.net/DTD/sodipodi-0.dtd"
   xmlns:inkscape="http://www.inkscape.org/namespaces/inkscape"
   width="104.42222mm"
   height="104.42222mm"
   viewBox="0 0 369.99998 369.99998"
   id="svg4246"
   version="1.1"
   inkscape:version="0.91 r13725"
   inkscape:export-filename="C:\Users\Khanh\Desktop\okiagari.png"
   inkscape:export-xdpi="171.89999"
   inkscape:export-ydpi="171.89999"
   sodipodi:docname="Okiagari - Circle.svg">
  <defs
     id="defs4248">
    <inkscape:path-effect
       effect="spiro"
       id="path-effect4826"
       is_visible="true" />
    <inkscape:path-effect
       effect="spiro"
       id="path-effect4822"
       is_visible="true" />
    <inkscape:path-effect
       effect="spiro"
       id="path-effect4818"
       is_visible="true" />
    <inkscape:path-effect
       effect="spiro"
       id="path-effect4814"
       is_visible="true" />
    <inkscape:path-effect
       effect="spiro"
       id="path-effect4810"
       is_visible="true" />
    <inkscape:path-effect
       effect="spiro"
       id="path-effect4806"
       is_visible="true" />
    <inkscape:path-effect
       effect="spiro"
       id="path-effect4802"
       is_visible="true" />
    <inkscape:path-effect
       effect="spiro"
       id="path-effect4798"
       is_visible="true" />
  </defs>
  <sodipodi:namedview
     id="base"
     pagecolor="#ffffff"
     bordercolor="#666666"
     borderopacity="1.0"
     inkscape:pageopacity="0.0"
     inkscape:pageshadow="2"
     inkscape:zoom="0.7"
     inkscape:cx="-43.631473"
     inkscape:cy="262.93297"
     inkscape:document-units="px"
     inkscape:current-layer="layer1"
     showgrid="false"
     inkscape:window-width="1920"
     inkscape:window-height="1017"
     inkscape:window-x="1592"
     inkscape:window-y="-8"
     inkscape:window-maximized="1"
     fit-margin-top="0"
     fit-margin-left="0"
     fit-margin-right="0"
     fit-margin-bottom="0" />
  <metadata
     id="metadata4251">
    <rdf:RDF>
      <cc:Work
         rdf:about="">
        <dc:format>image/svg+xml</dc:format>
        <dc:type
           rdf:resource="http://purl.org/dc/dcmitype/StillImage" />
        <dc:title></dc:title>
      </cc:Work>
    </rdf:RDF>
  </metadata>
  <g
     inkscape:label="Layer 1"
     inkscape:groupmode="layer"
     id="layer1"
     transform="translate(-117.11121,-341.78113)">
    <circle
       style="opacity:1;fill:#ca3c3c;fill-opacity:1;fill-rule:evenodd;stroke:#ca3c3c;stroke-width:6.40102243;stroke-linecap:butt;stroke-linejoin:miter;stroke-miterlimit:4;stroke-dasharray:none;stroke-opacity:1"
       id="path4168"
       cx="302.11121"
       cy="526.78113"
       r="181.79948" />
    <path
       style="fill:#ffffff;fill-rule:evenodd;stroke:#000000;stroke-width:1px;stroke-linecap:butt;stroke-linejoin:miter;stroke-opacity:1;fill-opacity:1"
       d="m 302.85714,360.93363 c -47.01632,0.3718 -103.05172,83.96016 -125.11714,158.05325 -11.61334,38.99625 -6.40959,47.24212 -6.31143,93.73247 0.005,100.27594 258.56649,99.96215 257.14286,-2.85715 0.56522,-37.91433 8.28228,-52.99616 -1.29504,-87.31994 -22.2388,-79.70072 -80.05245,-160.94294 -124.41925,-161.60863 z"
       id="path4794"
       inkscape:connector-curvature="0"
       sodipodi:nodetypes="csccsc" />
    <path
       style="fill:#7d1919;fill-opacity:1;fill-rule:evenodd;stroke:none;stroke-width:1px;stroke-linecap:butt;stroke-linejoin:miter;stroke-opacity:1"
       d="m 177.17129,637.63145 c 93.23845,58.42405 167.08584,52.97647 245.00379,0.0324 20.90823,-39.96086 15.02024,-78.614 7.47121,-107.10858 -72.67195,22.60725 -152.48933,33.7883 -255.88426,1.6415 -6.51179,21.40209 -11.64313,80.26792 3.40926,105.43467 z"
       id="path4828"
       inkscape:connector-curvature="0"
       sodipodi:nodetypes="ccccc" />
    <path
       style="fill:#3c2929;fill-opacity:1;fill-rule:evenodd;stroke:none;stroke-width:1px;stroke-linecap:butt;stroke-linejoin:miter;stroke-opacity:1"
       d="m 259.6092,380.10569 c 30.05904,-7.8637 57.96873,-4.98064 85.35789,0.50507 -11.64829,-7.02251 -14.68351,-17.47224 -41.92133,-19.69797 -18.25164,-1.14793 -30.32202,10.06664 -43.43656,19.1929 z"
       id="path4830"
       inkscape:connector-curvature="0"
       sodipodi:nodetypes="cccc"
       inkscape:export-filename="C:\Users\Khanh\Desktop\face.png"
       inkscape:export-xdpi="171.89999"
       inkscape:export-ydpi="171.89999" />
    <path
       style="fill:#3c2929;fill-opacity:1;fill-rule:evenodd;stroke:none;stroke-width:1px;stroke-linecap:butt;stroke-linejoin:miter;stroke-opacity:1"
       d="m 229.97897,494.33854 c 29.99857,-24.16885 41.10102,-12.92076 59.59645,4.48813 -21.26506,-15.06109 -33.60905,-18.43628 -59.59645,-4.48813 z"
       id="path4832"
       inkscape:connector-curvature="0"
       sodipodi:nodetypes="ccc" />
    <path
       style="fill:#3c2929;fill-opacity:1;fill-rule:evenodd;stroke:none;stroke-width:1px;stroke-linecap:butt;stroke-linejoin:miter;stroke-opacity:1"
       d="m 323.50263,495.15589 c 23.85493,-20.27163 37.92578,-9.85183 50,6.83115 -14.46688,-13.21677 -30.7768,-17.26796 -50,-6.83115 z"
       id="path4832-4"
       inkscape:connector-curvature="0"
       sodipodi:nodetypes="ccc" />
    <path
       style="fill:#3c2929;fill-opacity:1;fill-rule:evenodd;stroke:none;stroke-width:1px;stroke-linecap:butt;stroke-linejoin:miter;stroke-opacity:1"
       d="m 330.06862,476.69733 c 26.17174,-21.02396 31.51766,-8.00768 42.67639,4.83411 -13.73116,-16.96491 -22.50246,-19.70563 -42.67639,-4.83411 z"
       id="path4832-4-3"
       inkscape:connector-curvature="0"
       sodipodi:nodetypes="ccc" />
    <path
       style="fill:#b01e1e;fill-opacity:1;fill-rule:evenodd;stroke:none;stroke-width:1px;stroke-linecap:butt;stroke-linejoin:miter;stroke-opacity:1"
       d="m 296.01405,525.33259 c 7.04663,-1.19378 16.89647,-0.48367 21.50172,0.5357 -4.74874,0.043 -13.94173,0.38912 -21.50172,-0.5357 z"
       id="path4832-4-3-8-1"
       inkscape:connector-curvature="0"
       sodipodi:nodetypes="ccc" />
    <path
       style="fill:#3c2929;fill-opacity:1;fill-rule:evenodd;stroke:none;stroke-width:1px;stroke-linecap:butt;stroke-linejoin:miter;stroke-opacity:1"
       d="m 238.01848,473.14163 c 26.17174,-21.02396 31.51766,-8.00768 42.67639,4.83411 -13.73116,-16.96491 -22.50246,-19.70563 -42.67639,-4.83411 z"
       id="path4832-4-3-9"
       inkscape:connector-curvature="0"
       sodipodi:nodetypes="ccc" />
    <path
       style="fill:#ffffff;fill-opacity:1;fill-rule:evenodd;stroke:#3c2929;stroke-width:0.19999995;stroke-linecap:butt;stroke-linejoin:miter;stroke-opacity:1;stroke-miterlimit:4;stroke-dasharray:none"
       d="m 395,393.07649 c 10.43604,11.44865 19.31399,23.67634 25.71429,37.14286 z"
       id="path4909"
       inkscape:connector-curvature="0"
       sodipodi:nodetypes="ccc" />
    <path
       style="fill:#ffffff;fill-opacity:1;fill-rule:evenodd;stroke:#3c2929;stroke-width:0.06954146;stroke-linecap:butt;stroke-linejoin:miter;stroke-opacity:1;stroke-miterlimit:4;stroke-dasharray:none"
       d="m 409.73545,399.02791 c -3.62945,3.89538 -7.46057,7.14217 -11.61236,9.35758 z"
       id="path4909-8"
       inkscape:connector-curvature="0"
       sodipodi:nodetypes="ccc" />
    <path
       style="fill:#ffffff;fill-opacity:1;fill-rule:evenodd;stroke:#3c2929;stroke-width:0.06954146;stroke-linecap:butt;stroke-linejoin:miter;stroke-opacity:1;stroke-miterlimit:4;stroke-dasharray:none"
       d="m 412.38353,402.18693 c -3.62945,3.89538 -7.46057,7.14217 -11.61236,9.35758 z"
       id="path4909-8-7"
       inkscape:connector-curvature="0"
       sodipodi:nodetypes="ccc" />
    <path
       style="fill:#ffffff;fill-opacity:1;fill-rule:evenodd;stroke:#3c2929;stroke-width:0.19999995;stroke-linecap:butt;stroke-linejoin:miter;stroke-opacity:1;stroke-miterlimit:4;stroke-dasharray:none"
       d="m 215.16044,394.8954 c -10.43604,11.44865 -19.31399,23.67634 -25.71429,37.14286 z"
       id="path4909-5"
       inkscape:connector-curvature="0"
       sodipodi:nodetypes="ccc" />
    <path
       style="fill:#ffffff;fill-opacity:1;fill-rule:evenodd;stroke:#3c2929;stroke-width:0.06954146;stroke-linecap:butt;stroke-linejoin:miter;stroke-opacity:1;stroke-miterlimit:4;stroke-dasharray:none"
       d="m 200.42499,400.84682 c 3.62945,3.89538 7.46057,7.14217 11.61236,9.35758 z"
       id="path4909-8-6"
       inkscape:connector-curvature="0"
       sodipodi:nodetypes="ccc" />
    <path
       style="fill:#ffffff;fill-opacity:1;fill-rule:evenodd;stroke:#3c2929;stroke-width:0.06954146;stroke-linecap:butt;stroke-linejoin:miter;stroke-opacity:1;stroke-miterlimit:4;stroke-dasharray:none"
       d="m 197.77691,404.00584 c 3.62945,3.89538 7.46057,7.14217 11.61236,9.35758 z"
       id="path4909-8-7-8"
       inkscape:connector-curvature="0"
       sodipodi:nodetypes="ccc" />
    <g
       id="g5026"
       transform="translate(166.78571,98.214286)">
      <path
         d="m 40.406102,518.08618 a 2.4622467,2.4306793 0 0 1 -2.430737,2.43048 2.4622467,2.4306793 0 0 1 -2.49295,-2.36827 2.4622467,2.4306793 0 0 1 2.366931,-2.4911 2.4622467,2.4306793 0 0 1 2.553531,2.30452"
         sodipodi:open="true"
         sodipodi:end="6.2319948"
         sodipodi:start="0"
         sodipodi:ry="2.4306793"
         sodipodi:rx="2.4622467"
         sodipodi:cy="518.08618"
         sodipodi:cx="37.943855"
         sodipodi:type="arc"
         id="path4962"
         style="opacity:1;fill:#f7adad;fill-opacity:1;stroke:none;stroke-width:3;stroke-linecap:round;stroke-linejoin:round;stroke-miterlimit:4;stroke-dasharray:none;stroke-opacity:1" />
      <path
         sodipodi:nodetypes="ccccc"
         inkscape:connector-curvature="0"
         id="path4964"
         d="m 37.955905,520.47656 c -2.426717,0.25248 -2.817887,7.57312 -2.479799,10.33403 0.252974,2.23766 1.53618,2.3181 3.711485,2.04527 1.77504,-0.20434 3.539463,-0.60522 3.292245,-2.71384 -0.218859,-2.33669 -2.17353,-9.88885 -4.523931,-9.66546 z"
         style="fill:#f7adad;fill-opacity:1;fill-rule:evenodd;stroke:none;stroke-width:1px;stroke-linecap:butt;stroke-linejoin:miter;stroke-opacity:1" />
      <path
         sodipodi:nodetypes="ccccc"
         inkscape:connector-curvature="0"
         id="path4964-7"
         d="m 35.353116,519.08072 c -1.145715,-2.15407 -8.076997,0.23384 -10.508616,1.58446 -1.978683,1.07515 -1.571108,2.29457 -0.500984,4.20799 0.856268,1.56824 1.890693,3.05278 3.751942,2.03144 2.083276,-1.08073 8.347761,-5.72961 7.257662,-7.82389 z"
         style="fill:#f7adad;fill-opacity:1;fill-rule:evenodd;stroke:none;stroke-width:1px;stroke-linecap:butt;stroke-linejoin:miter;stroke-opacity:1" />
      <path
         sodipodi:nodetypes="ccccc"
         inkscape:connector-curvature="0"
         id="path4964-7-0"
         d="m 40.720479,519.01459 c -0.02543,2.43969 7.203098,3.66168 9.984547,3.64009 2.251916,0.003 2.477904,-1.26231 2.454485,-3.45452 -9.44e-4,-1.78677 -0.198361,-3.58535 -2.32141,-3.57978 -2.34642,-0.0486 -10.072004,1.03366 -10.117622,3.39421 z"
         style="fill:#f7adad;fill-opacity:1;fill-rule:evenodd;stroke:none;stroke-width:1px;stroke-linecap:butt;stroke-linejoin:miter;stroke-opacity:1" />
      <path
         sodipodi:nodetypes="ccccc"
         inkscape:connector-curvature="0"
         id="path4964-7-0-6"
         d="m 38.770191,515.67222 c 2.090286,1.25834 6.807105,-4.35383 8.198115,-6.76257 1.144195,-1.93958 0.167594,-2.77585 -1.734108,-3.86666 -1.540797,-0.90472 -3.191346,-1.64604 -4.26249,0.18699 -1.231033,1.99816 -4.213354,9.2066 -2.201517,10.44224 z"
         style="fill:#f7adad;fill-opacity:1;fill-rule:evenodd;stroke:none;stroke-width:1px;stroke-linecap:butt;stroke-linejoin:miter;stroke-opacity:1" />
      <path
         sodipodi:nodetypes="ccccc"
         inkscape:connector-curvature="0"
         id="path4964-7-0-6-2"
         d="m 35.78833,516.62967 c 1.704145,-1.74603 -2.676842,-7.6241 -4.702415,-9.53041 -1.625512,-1.55847 -2.663443,-0.79966 -4.161277,0.80123 -1.233937,1.29227 -2.334002,2.72884 -0.795441,4.19178 1.662616,1.65644 7.995077,6.21228 9.659133,4.5374 z"
         style="fill:#f7adad;fill-opacity:1;fill-rule:evenodd;stroke:none;stroke-width:1px;stroke-linecap:butt;stroke-linejoin:miter;stroke-opacity:1" />
    </g>
    <flowRoot
       xml:space="preserve"
       id="flowRoot4163"
       style="font-style:normal;font-variant:normal;font-weight:normal;font-stretch:normal;font-size:40px;line-height:125%;font-family:'MV Boli';-inkscape-font-specification:'MV Boli';letter-spacing:0px;word-spacing:0px;writing-mode:lr-tb;fill:#000000;fill-opacity:1;stroke:none;stroke-width:1px;stroke-linecap:butt;stroke-linejoin:miter;stroke-opacity:1"><flowRegion
         id="flowRegion4165"><rect
           id="rect4167"
           width="172.73608"
           height="45.456863"
           x="212.13203"
           y="285.65643"
           style="font-style:normal;font-variant:normal;font-weight:normal;font-stretch:normal;font-family:'MV Boli';-inkscape-font-specification:'MV Boli'" /></flowRegion><flowPara
         id="flowPara4169" /></flowRoot>  </g>
</svg>
