<?xml version="1.0" encoding="UTF-8" standalone="no"?>
<!-- Created with Inkscape (http://www.inkscape.org/) -->

<svg
   xmlns:dc="http://purl.org/dc/elements/1.1/"
   xmlns:cc="http://creativecommons.org/ns#"
   xmlns:rdf="http://www.w3.org/1999/02/22-rdf-syntax-ns#"
   xmlns:svg="http://www.w3.org/2000/svg"
   xmlns="http://www.w3.org/2000/svg"
   xmlns:sodipodi="http://sodipodi.sourceforge.net/DTD/sodipodi-0.dtd"
   xmlns:inkscape="http://www.inkscape.org/namespaces/inkscape"
   width="90mm"
   height="90mm"
   viewBox="0 0 318.89764 318.89764"
   id="svg2"
   version="1.1"
   inkscape:version="0.91 r13725"
   sodipodi:docname="Straycat.svg"
   inkscape:export-filename="C:\Users\Khanh\Desktop\straycat.png"
   inkscape:export-xdpi="90.040001"
   inkscape:export-ydpi="90.040001">
  <sodipodi:namedview
     id="base"
     pagecolor="#ffffff"
     bordercolor="#666666"
     borderopacity="1.0"
     inkscape:pageopacity="0.0"
     inkscape:pageshadow="2"
     inkscape:zoom="1.4"
     inkscape:cx="23.128294"
     inkscape:cy="67.474155"
     inkscape:document-units="px"
     inkscape:current-layer="layer1"
     showgrid="true"
     showguides="false"
     fit-margin-top="0"
     fit-margin-left="0"
     fit-margin-right="0"
     fit-margin-bottom="0"
     inkscape:window-width="1920"
     inkscape:window-height="1017"
     inkscape:window-x="-8"
     inkscape:window-y="-8"
     inkscape:window-maximized="1">
    <inkscape:grid
       originy="-337.13377"
       originx="-144.5433"
       id="grid4154"
       type="xygrid" />
  </sodipodi:namedview>
  <defs
     id="defs4">
    <inkscape:perspective
       id="perspective4136"
       inkscape:persp3d-origin="372.04723 : 350.78738 : 1"
       inkscape:vp_z="744.09448 : 526.18109 : 1"
       inkscape:vp_y="0 : 999.99997 : 0"
       inkscape:vp_x="0 : 526.18109 : 1"
       sodipodi:type="inkscape:persp3d" />
  </defs>
  <metadata
     id="metadata7">
    <rdf:RDF>
      <cc:Work
         rdf:about="">
        <dc:format>image/svg+xml</dc:format>
        <dc:type
           rdf:resource="http://purl.org/dc/dcmitype/StillImage" />
        <dc:title></dc:title>
      </cc:Work>
    </rdf:RDF>
  </metadata>
  <g
     transform="translate(-144.5433,-396.33081)"
     id="layer1"
     inkscape:groupmode="layer"
     inkscape:label="Layer 1">
    <g
       transform="translate(2.8571429,-4)"
       id="g4240">
      <path
         inkscape:connector-curvature="0"
         id="path4171"
         style="fill:#775050;fill-opacity:1;fill-rule:evenodd;stroke:#ffffff;stroke-width:1px;stroke-linecap:butt;stroke-linejoin:round;stroke-miterlimit:4;stroke-dasharray:none;stroke-dashoffset:0;stroke-opacity:1"
         d="m 146.0433,643.37337 87.67557,70.35514 224.04054,-82.32804 -115.33205,-26.50991 z" />
      <path
         inkscape:connector-curvature="0"
         id="path4173"
         style="fill:#775050;fill-opacity:1;fill-rule:evenodd;stroke:#ffffff;stroke-width:1px;stroke-linecap:butt;stroke-linejoin:round;stroke-miterlimit:4;stroke-dasharray:none;stroke-dashoffset:0;stroke-opacity:1"
         d="m 146.0433,601.48057 0,41.8928 196.38406,-38.48281 0,-28.13632 z" />
      <path
         inkscape:connector-curvature="0"
         id="path4175"
         style="fill:#775050;fill-opacity:1;fill-rule:evenodd;stroke:#ffffff;stroke-width:1px;stroke-linecap:butt;stroke-linejoin:round;stroke-miterlimit:4;stroke-dasharray:none;stroke-dashoffset:0;stroke-opacity:1"
         d="m 342.42736,576.75424 115.33205,17.0334 0,37.61283 -115.33205,-26.50991 z" />
      <path
         inkscape:connector-curvature="0"
         id="path4177"
         style="fill:#cdc7c7;fill-opacity:1;fill-rule:evenodd;stroke:#515151;stroke-width:3;stroke-linecap:butt;stroke-linejoin:round;stroke-miterlimit:4;stroke-dasharray:none;stroke-dashoffset:0;stroke-opacity:1"
         d="m 146.0433,601.48057 87.67557,45.20524 224.04054,-52.89817 -115.33205,-17.0334 z" />
      <path
         style="color:#000000;clip-rule:nonzero;display:inline;overflow:visible;visibility:visible;opacity:1;isolation:auto;mix-blend-mode:normal;color-interpolation:sRGB;color-interpolation-filters:linearRGB;solid-color:#000000;solid-opacity:1;fill:#000000;fill-opacity:1;fill-rule:evenodd;stroke:#515151;stroke-width:3;stroke-linecap:butt;stroke-linejoin:miter;stroke-miterlimit:4;stroke-dasharray:none;stroke-dashoffset:0;stroke-opacity:1;color-rendering:auto;image-rendering:auto;shape-rendering:auto;text-rendering:auto;enable-background:accumulate"
         d="m 430.82031,507.86935 c -4.26186,0.23422 -8.12952,0.45167 -11.9414,2.02758 -16.81116,8.85845 -32.48079,28.49216 -36.65821,59.87867 -0.75225,5.66278 -0.84189,5.0622 -1.7473,12.02135 0,0 -1.55783,11.40887 -1.83947,11.71091 -4,4.28976 -29.93795,-2.19728 -58.71791,2.69336 -28.77996,4.89063 -58.25685,2.65711 -62.01954,-0.9719 l -0.0273,0.006 c -0.21793,-0.43968 -8.98958,-18.15255 -10.04102,-22.96951 -1.06459,-4.87712 -0.76143,-16.00612 0.0625,-18.06393 0.82396,-2.05781 3.93139,-7.76545 3.86329,-21.33361 -0.23366,-0.90569 -0.74764,-1.62327 -1.6543,-2.07786 -4.35563,-0.69525 -7.31909,3.46122 -10.97852,5.19254 -0.77102,-1.3035 -2.98658,-3.69658 -4.17773,-4.5495 -0.77866,-4.62428 -0.83664,-9.44155 -2.33594,-13.87261 -2.08811,1.40733 -3.27883,6.18657 -4.90625,9.32312 -3.37024,-1.30893 -6.78745,-3.63191 -10.08203,-3.31787 0,0 -2.60156,-0.0565 -4.60156,1.01588 -2,1.07244 -9.47769,4.52187 -14.23828,6.40533 0,0 -6.70291,-0.32841 -8.57422,0.67865 -0.93565,0.50353 -1.5665,1.75512 -2.13281,2.57428 -0.64224,0.929 -1.97022,1.80862 -2.33204,2.63712 -0.72364,1.657 -0.91321,3.21511 -1.03711,5.63241 -0.12389,2.4173 -0.87621,1.87332 -1.56054,3.08118 -0.85889,1.48315 -0.59002,3.50532 -0.31446,5.22605 0,4.28976 11.36388,11.82401 13.16797,20.56909 1.79385,8.69539 2.8764,37.51296 2.88868,37.84126 l -0.0312,0.006 2.14648,25.59197 55,37.53544 130,-37.53544 c 0,0 -0.13721,-11.13079 1.42857,-26.42802 0.081,-0.79167 -1.42866,-16.469 -1.13755,-19.9425 l -0.0274,-0.0107 c 0.231,-5.33127 0.46059,-12.31775 1.09766,-17.40203 3.62109,-28.24194 17.64506,-46.51815 32.21733,-54.48908 3.30422,-1.41803 6.15417,-1.81886 9.84844,-2.02962 3.87732,-0.12176 8.00237,1.46476 11.91274,2.94078 3.65809,1.40256 6.22837,4.14617 8.95689,7.14891 1.27148,1.28703 6.70327,-0.24848 4.41225,-4.86385 -2.40409,-4.1443 -5.66402,-7.15767 -10.21679,-8.83926 -4.51115,-1.64034 -9.19885,-3.1767 -13.67188,-3.04138 z"
         id="path4167"
         inkscape:connector-curvature="0"
         sodipodi:nodetypes="ccccssccsccccccccscssssccsccccccccccccccccc" />
      <path
         inkscape:connector-curvature="0"
         id="path4179"
         style="fill:#515151;fill-opacity:1;fill-rule:evenodd;stroke:#666651;stroke-width:3;stroke-linecap:butt;stroke-linejoin:round;stroke-miterlimit:4;stroke-dasharray:none;stroke-dashoffset:0;stroke-opacity:1"
         d="m 233.71887,646.68581 0,67.0427 224.04054,-82.32804 0,-37.61283 z" />
      <path
         inkscape:connector-curvature="0"
         id="path4181"
         style="fill:#515151;fill-opacity:1;fill-rule:evenodd;stroke:#666651;stroke-width:3;stroke-linecap:butt;stroke-linejoin:round;stroke-miterlimit:4;stroke-dasharray:none;stroke-dashoffset:0;stroke-opacity:1"
         d="m 146.0433,601.48057 87.67557,45.20524 0,67.0427 -87.67557,-70.35514 z" />
    </g>
    <flowRoot
       transform="matrix(2.3733143,0,0,2.3733143,570.04758,-70.259184)"
       style="font-style:normal;font-weight:normal;font-size:17.5px;line-height:125%;font-family:sans-serif;letter-spacing:0px;word-spacing:0px;writing-mode:lr-tb;fill:#000000;fill-opacity:1;stroke:none;stroke-width:1px;stroke-linecap:butt;stroke-linejoin:miter;stroke-opacity:1"
       id="flowRoot4294"
       xml:space="preserve"><flowRegion
         id="flowRegion4296"><rect
           y="206.0314"
           x="-164.5433"
           height="70"
           width="165"
           id="rect4298" /></flowRegion><flowPara
         id="flowPara4300">⠎⠞⠗⠁⠽ ⠉⠁⠞</flowPara></flowRoot>  </g>
</svg>
