<?xml version="1.0" encoding="UTF-8" standalone="no"?>
<!-- Created with Inkscape (http://www.inkscape.org/) -->

<svg
   xmlns:dc="http://purl.org/dc/elements/1.1/"
   xmlns:cc="http://creativecommons.org/ns#"
   xmlns:rdf="http://www.w3.org/1999/02/22-rdf-syntax-ns#"
   xmlns:svg="http://www.w3.org/2000/svg"
   xmlns="http://www.w3.org/2000/svg"
   xmlns:sodipodi="http://sodipodi.sourceforge.net/DTD/sodipodi-0.dtd"
   xmlns:inkscape="http://www.inkscape.org/namespaces/inkscape"
   width="90mm"
   height="90mm"
   viewBox="0 0 318.89764 318.89764"
   id="svg2"
   version="1.1"
   inkscape:version="0.91 r13725"
   sodipodi:docname="Straycat.svg"
   inkscape:export-filename="C:\Users\Khanh\Desktop\straycat.png"
   inkscape:export-xdpi="90.040001"
   inkscape:export-ydpi="90.040001">
  <sodipodi:namedview
     id="base"
     pagecolor="#ffffff"
     bordercolor="#666666"
     borderopacity="1.0"
     inkscape:pageopacity="0.0"
     inkscape:pageshadow="2"
     inkscape:zoom="0.98994949"
     inkscape:cx="-197.58397"
     inkscape:cy="214.8978"
     inkscape:document-units="px"
     inkscape:current-layer="layer1"
     showgrid="true"
     showguides="false"
     fit-margin-top="0"
     fit-margin-left="0"
     fit-margin-right="0"
     fit-margin-bottom="0"
     inkscape:window-width="1920"
     inkscape:window-height="1017"
     inkscape:window-x="-8"
     inkscape:window-y="-8"
     inkscape:window-maximized="1">
    <inkscape:grid
       originy="-337.13377"
       originx="-144.5433"
       id="grid4154"
       type="xygrid" />
  </sodipodi:namedview>
  <defs
     id="defs4">
    <inkscape:perspective
       id="perspective4136"
       inkscape:persp3d-origin="372.04723 : 350.78738 : 1"
       inkscape:vp_z="744.09448 : 526.18109 : 1"
       inkscape:vp_y="0 : 999.99997 : 0"
       inkscape:vp_x="0 : 526.18109 : 1"
       sodipodi:type="inkscape:persp3d" />
  </defs>
  <metadata
     id="metadata7">
    <rdf:RDF>
      <cc:Work
         rdf:about="">
        <dc:format>image/svg+xml</dc:format>
        <dc:type
           rdf:resource="http://purl.org/dc/dcmitype/StillImage" />
        <dc:title />
      </cc:Work>
    </rdf:RDF>
  </metadata>
  <g
     transform="translate(-144.5433,-396.33081)"
     id="layer1"
     inkscape:groupmode="layer"
     inkscape:label="Layer 1">
    <path
       d="M 148.90044,643.37337 236.57601,713.72851 460.61655,631.40047 345.2845,604.89056 Z"
       style="fill:#775050;fill-opacity:1;fill-rule:evenodd;stroke:#ffffff;stroke-width:1px;stroke-linecap:butt;stroke-linejoin:round;stroke-miterlimit:4;stroke-dasharray:none;stroke-dashoffset:0;stroke-opacity:1"
       id="path4171"
       inkscape:connector-curvature="0" />
    <path
       d="m 148.90044,601.48057 0,41.8928 196.38406,-38.48281 0,-28.13632 z"
       style="fill:#515151;fill-opacity:1;fill-rule:evenodd;stroke:#fffff4;stroke-width:4;stroke-linecap:butt;stroke-linejoin:round;stroke-miterlimit:4;stroke-dasharray:none;stroke-dashoffset:0;stroke-opacity:1"
       id="path4173"
       inkscape:connector-curvature="0" />
    <path
       d="m 345.2845,576.75424 115.33205,17.0334 0,37.61283 -115.33205,-26.50991 z"
       style="fill:#515151;fill-opacity:1;fill-rule:evenodd;stroke:#fffff4;stroke-width:3;stroke-linecap:butt;stroke-linejoin:round;stroke-miterlimit:4;stroke-dasharray:none;stroke-dashoffset:0;stroke-opacity:1"
       id="path4175"
       inkscape:connector-curvature="0" />
    <path
       style="color:#000000;clip-rule:nonzero;display:inline;overflow:visible;visibility:visible;opacity:1;isolation:auto;mix-blend-mode:normal;color-interpolation:sRGB;color-interpolation-filters:linearRGB;solid-color:#000000;solid-opacity:1;fill:#000000;fill-opacity:1;fill-rule:evenodd;stroke:#c6baba;stroke-width:3;stroke-linecap:butt;stroke-linejoin:miter;stroke-miterlimit:4;stroke-dasharray:none;stroke-dashoffset:0;stroke-opacity:1;color-rendering:auto;image-rendering:auto;shape-rendering:auto;text-rendering:auto;enable-background:accumulate"
       d="m 337.72885,509.11792 c -4.47303,-0.13532 -9.16073,1.40263 -13.67188,3.04297 -4.55277,1.68159 -7.81271,4.69359 -10.21679,8.83789 -2.29102,4.61537 3.14062,6.15226 4.4121,4.86523 2.72852,-3.00274 5.29895,-5.74783 8.95704,-7.15039 3.91037,-1.47602 8.03479,-3.06121 11.9121,-2.93945 3.69427,0.21076 6.54344,0.61127 9.84766,2.0293 14.57227,7.97093 28.59766,26.24634 32.21875,54.48828 0.388,7.4459 1.873,14.17033 0.30274,21.21679 -4,4.28976 -29.93684,-2.19728 -58.7168,2.69336 -28.77996,4.89063 -58.25684,2.65636 -62.01953,-0.97265 l -0.0273,0.006 c -0.21793,-0.43968 -8.98957,-18.15179 -10.04101,-22.96875 -1.06459,-4.87712 -0.76143,-16.00665 0.0625,-18.06446 0.82396,-2.05781 3.93138,-7.76582 3.86328,-21.33398 -0.23366,-0.90569 -0.74764,-1.62354 -1.6543,-2.07813 -4.35563,-0.69525 -7.31908,3.46204 -10.97851,5.19336 -0.77102,-1.3035 -2.98659,-3.6959 -4.17774,-4.54882 -0.77866,-4.62428 -0.83663,-9.44199 -2.33593,-13.87305 -2.08812,1.40733 -3.27884,6.18571 -4.90625,9.32226 -3.37025,-1.30893 -6.78746,-3.6324 -10.08204,-3.31835 0,0 -2.60156,-0.0548 -4.60156,1.01757 -2,1.07244 -9.47769,4.52084 -14.23828,6.4043 0,0 -6.70291,-0.32737 -8.57422,0.67969 -0.93565,0.50353 -1.5665,1.75506 -2.13281,2.57422 -0.64224,0.929 -1.97021,1.80821 -2.33203,2.63672 -0.72364,1.657 -0.91321,3.21551 -1.03711,5.63281 -0.12389,2.4173 -0.87622,1.87222 -1.56055,3.08008 -0.85889,1.48315 -0.59001,3.50583 -0.31445,5.22656 0,4.28976 11.36388,11.82328 13.16797,20.56836 1.79385,8.69539 2.87639,37.51349 2.88867,37.84179 l -0.0312,0.006 2.14648,25.5918 55,37.53516 130,-37.53516 c 0,0 -0.13804,-11.1305 1.42774,-26.42773 -0.45062,-13.15699 -2.16777,-24.18306 -3.95703,-37.3711 -4.17742,-31.38651 -19.84705,-51.02045 -36.65821,-59.8789 -3.81188,-1.57591 -7.67954,-1.79313 -11.9414,-2.02735 z"
       id="path4157"
       inkscape:connector-curvature="0"
       sodipodi:nodetypes="cccccccccsccsccccccccccssssccscccccccccc" />
    <path
       d="m 236.57601,646.68581 0,67.0427 224.04054,-82.32804 0,-37.61283 z"
       style="fill:#515151;fill-opacity:1;fill-rule:evenodd;stroke:#fffff4;stroke-width:3;stroke-linecap:butt;stroke-linejoin:round;stroke-miterlimit:4;stroke-dasharray:none;stroke-dashoffset:0;stroke-opacity:1"
       id="path4179"
       inkscape:connector-curvature="0" />
    <path
       d="m 148.90044,601.48057 87.67557,45.20524 0,67.0427 -87.67557,-70.35514 z"
       style="fill:#515151;fill-opacity:1;fill-rule:evenodd;stroke:#fffff4;stroke-width:3;stroke-linecap:butt;stroke-linejoin:round;stroke-miterlimit:4;stroke-dasharray:none;stroke-dashoffset:0;stroke-opacity:1"
       id="path4181"
       inkscape:connector-curvature="0" />
    <flowRoot
       transform="matrix(3.0795542,0,0,3.1860542,644.24527,-263.94662)"
       style="font-style:normal;font-weight:normal;font-size:17.5px;line-height:125%;font-family:sans-serif;letter-spacing:0px;word-spacing:0px;writing-mode:lr-tb;fill:#000000;fill-opacity:1;stroke:none;stroke-width:1px;stroke-linecap:butt;stroke-linejoin:miter;stroke-opacity:1"
       id="flowRoot4294"
       xml:space="preserve"><flowRegion
         id="flowRegion4296"><rect
           y="206.0314"
           x="-164.5433"
           height="70"
           width="165"
           id="rect4298" /></flowRegion><flowPara
         id="flowPara4300">⠎⠞⠗⠁⠽ ⠉⠁⠞</flowPara></flowRoot>    <path
       style="color:#000000;clip-rule:nonzero;display:inline;overflow:visible;visibility:visible;opacity:1;isolation:auto;mix-blend-mode:normal;color-interpolation:sRGB;color-interpolation-filters:linearRGB;solid-color:#000000;solid-opacity:1;fill:#515151;fill-opacity:1;fill-rule:evenodd;stroke:#fffff4;stroke-width:3;stroke-linecap:butt;stroke-linejoin:round;stroke-miterlimit:4;stroke-dasharray:none;stroke-dashoffset:0;stroke-opacity:1;color-rendering:auto;image-rendering:auto;shape-rendering:auto;text-rendering:auto;enable-background:accumulate"
       d="m 148.80502,601.98315 -4.76172,2.39258 0,55.72852 35.57617,29.41406 56.27344,-43.46484 -87.08789,-44.07032 z"
       id="path4160"
       inkscape:connector-curvature="0" />
    <path
       style="color:#000000;clip-rule:nonzero;display:inline;overflow:visible;visibility:visible;opacity:1;isolation:auto;mix-blend-mode:normal;color-interpolation:sRGB;color-interpolation-filters:linearRGB;solid-color:#000000;solid-opacity:1;fill:#515151;fill-opacity:1;fill-rule:evenodd;stroke:#fffff4;stroke-width:3;stroke-linecap:butt;stroke-linejoin:miter;stroke-miterlimit:4;stroke-dasharray:none;stroke-dashoffset:0;stroke-opacity:1;color-rendering:auto;image-rendering:auto;shape-rendering:auto;text-rendering:auto;enable-background:accumulate"
       d="m 461.00033,593.36206 -226,53 20,50 208.94141,-65.00391 0,-32.88672 -2.94141,-5.10937 z"
       id="path4162"
       inkscape:connector-curvature="0" />
  </g>
</svg>
