<?xml version="1.0" encoding="UTF-8" standalone="no"?>
<!-- Created with Inkscape (http://www.inkscape.org/) -->

<svg
   xmlns:dc="http://purl.org/dc/elements/1.1/"
   xmlns:cc="http://creativecommons.org/ns#"
   xmlns:rdf="http://www.w3.org/1999/02/22-rdf-syntax-ns#"
   xmlns:svg="http://www.w3.org/2000/svg"
   xmlns="http://www.w3.org/2000/svg"
   xmlns:sodipodi="http://sodipodi.sourceforge.net/DTD/sodipodi-0.dtd"
   xmlns:inkscape="http://www.inkscape.org/namespaces/inkscape"
   width="175.75876mm"
   height="205.32083mm"
   viewBox="0 0 622.76723 727.51476"
   id="svg4502"
   version="1.1"
   inkscape:version="0.91 r13725"
   sodipodi:docname="akabeko-blee.svg">
  <defs
     id="defs4504" />
  <sodipodi:namedview
     id="base"
     pagecolor="#ffffff"
     bordercolor="#666666"
     borderopacity="1.0"
     inkscape:pageopacity="0.0"
     inkscape:pageshadow="2"
     inkscape:zoom="0.49497475"
     inkscape:cx="755.0299"
     inkscape:cy="82.400531"
     inkscape:document-units="px"
     inkscape:current-layer="layer1"
     showgrid="false"
     fit-margin-top="0"
     fit-margin-left="0"
     fit-margin-right="0"
     fit-margin-bottom="0"
     inkscape:window-width="1920"
     inkscape:window-height="1017"
     inkscape:window-x="1592"
     inkscape:window-y="-8"
     inkscape:window-maximized="1" />
  <metadata
     id="metadata4507">
    <rdf:RDF>
      <cc:Work
         rdf:about="">
        <dc:format>image/svg+xml</dc:format>
        <dc:type
           rdf:resource="http://purl.org/dc/dcmitype/StillImage" />
        <dc:title />
      </cc:Work>
    </rdf:RDF>
  </metadata>
  <g
     inkscape:label="Layer 1"
     inkscape:groupmode="layer"
     id="layer1"
     transform="translate(-194.23712,-151.94828)">
    <path
       style="display:inline;fill:#ff0000;fill-opacity:1;fill-rule:evenodd;stroke:none;stroke-width:1px;stroke-linecap:butt;stroke-linejoin:miter;stroke-opacity:1"
       d="M 210.02583,518.31071 C 438.94447,775.58767 734.6311,654.23065 734.6311,654.23065 790.40774,567.47833 827.97372,446.51882 814.11674,366.2099 766.07734,320.60523 719.88443,272.73968 575.65975,265.88811 507.43992,305.49277 367.07862,367.75445 221.15382,387.24513 194.77483,417.36186 189.84665,462.3174 210.02583,518.31071 Z"
       id="path4231"
       inkscape:connector-curvature="0"
       sodipodi:nodetypes="cccccc" />
    <path
       style="display:inline;fill:#ff0000;fill-opacity:1;fill-rule:evenodd;stroke:none;stroke-width:1px;stroke-linecap:butt;stroke-linejoin:miter;stroke-opacity:1"
       d="m 221.15382,390.48128 c -22.88071,22.82652 -19.1035,112.80096 -9.5383,126.21136 11.95083,16.75502 91.6659,61.24876 110.48506,50.96994 21.59022,-5.75076 50.64508,-93.03184 43.71711,-111.64847 -17.51409,-38.14673 -91.16767,-76.02096 -144.66387,-65.53283 z"
       id="path4208"
       inkscape:connector-curvature="0"
       sodipodi:nodetypes="csccc" />
    <path
       style="display:inline;fill:#fbce70;fill-opacity:1;fill-rule:evenodd;stroke:none;stroke-width:0.34156123px;stroke-linecap:butt;stroke-linejoin:miter;stroke-opacity:1"
       d="m 245.99288,435.3152 c -25.69364,57.23577 -5.14665,54.82564 -2.03259,45.86343 19.19349,-45.049 6.01845,-55.31681 2.03259,-45.86343 z"
       id="path4214-9-1-7"
       inkscape:connector-curvature="0"
       sodipodi:nodetypes="ccc" />
    <path
       style="display:inline;fill:#ff0000;fill-opacity:1;fill-rule:evenodd;stroke:#000000;stroke-width:1.53386724px;stroke-linecap:butt;stroke-linejoin:miter;stroke-opacity:1"
       d="m 245.25148,441.32013 c -16.70165,41.45405 -3.34548,39.7085 -1.32123,33.21747 12.47637,-32.62762 3.91219,-40.06427 1.32123,-33.21747 z"
       id="path4214"
       inkscape:connector-curvature="0"
       sodipodi:nodetypes="ccc" />
    <path
       style="display:inline;fill:#fbce70;fill-opacity:1;fill-rule:evenodd;stroke:none;stroke-width:0.34156123px;stroke-linecap:butt;stroke-linejoin:miter;stroke-opacity:1"
       d="m 300.23056,461.63104 c -25.69364,57.23577 -5.14664,54.82564 -2.03259,45.86343 19.19352,-45.04901 6.01846,-55.31679 2.03259,-45.86343 z"
       id="path4214-9-1"
       inkscape:connector-curvature="0"
       sodipodi:nodetypes="ccc" />
    <path
       style="display:inline;fill:#ff0000;fill-opacity:1;fill-rule:evenodd;stroke:#000000;stroke-width:1.53386724px;stroke-linecap:butt;stroke-linejoin:miter;stroke-opacity:1"
       d="m 298.96732,471.16959 c -16.70165,41.45407 -3.34548,39.70849 -1.32126,33.21744 12.47639,-32.62759 3.9122,-40.06423 1.32126,-33.21744 z"
       id="path4214-9"
       inkscape:connector-curvature="0"
       sodipodi:nodetypes="ccc" />
    <path
       style="display:inline;fill:#ff0202;fill-opacity:1;fill-rule:evenodd;stroke:none;stroke-width:1px;stroke-linecap:butt;stroke-linejoin:miter;stroke-opacity:1"
       d="m 366.6125,457.63219 c 226.94008,7.74875 322.62566,-85.50395 445.91453,-96.27658 8.55889,82.13139 -13.23041,209.60919 -81.07537,289.63882 -145.40585,2.52449 -284.27435,-16.24396 -408.55623,-82.5228 29.18734,-26.27082 46.56302,-90.25355 43.71707,-110.83944 z"
       id="path4233"
       inkscape:connector-curvature="0"
       sodipodi:nodetypes="ccccc" />
    <path
       style="display:inline;fill:#e89a9a;fill-opacity:1;fill-rule:evenodd;stroke:none;stroke-width:0.98561388px;stroke-linecap:butt;stroke-linejoin:miter;stroke-opacity:1"
       d="m 610.84036,343.70694 c -99.24284,58.0904 -19.87907,55.64431 -7.85099,46.54833 74.13597,-45.7217 23.24669,-56.1428 7.85099,-46.54833 z"
       id="path4214-9-2-6-6-9"
       inkscape:connector-curvature="0"
       sodipodi:nodetypes="ccc" />
    <path
       style="display:inline;fill:#050000;fill-opacity:1;fill-rule:evenodd;stroke:none;stroke-width:0.68324649px;stroke-linecap:butt;stroke-linejoin:miter;stroke-opacity:1"
       d="m 608.16746,351.30492 c -69.59281,39.80889 -13.93999,38.13259 -5.50541,31.89917 51.98694,-31.33272 16.30148,-38.4742 5.50541,-31.89917 z"
       id="path4214-9-2"
       inkscape:connector-curvature="0"
       sodipodi:nodetypes="ccc" />
    <path
       style="display:inline;fill:#e89a9a;fill-opacity:1;fill-rule:evenodd;stroke:none;stroke-width:0.98561388px;stroke-linecap:butt;stroke-linejoin:miter;stroke-opacity:1"
       d="m 535.32988,302.85002 c -99.24284,58.0904 -19.87909,55.6443 -7.85098,46.54831 74.13591,-45.72167 23.24669,-56.1428 7.85098,-46.54831 z"
       id="path4214-9-2-6-6"
       inkscape:connector-curvature="0"
       sodipodi:nodetypes="ccc" />
    <path
       style="display:inline;fill:#050000;fill-opacity:1;fill-rule:evenodd;stroke:none;stroke-width:0.68324649px;stroke-linecap:butt;stroke-linejoin:miter;stroke-opacity:1"
       d="m 532.65511,310.03665 c -69.59282,39.80889 -13.94,38.13261 -5.50542,31.89919 51.98689,-31.33272 16.30147,-38.47421 5.50542,-31.89919 z"
       id="path4214-9-2-6"
       inkscape:connector-curvature="0"
       sodipodi:nodetypes="ccc" />
    <path
       style="display:inline;fill:#ef0000;fill-opacity:1;fill-rule:evenodd;stroke:none;stroke-width:0.45092702px;stroke-linecap:butt;stroke-linejoin:miter;stroke-opacity:1"
       d="m 546.71421,284.85305 c 59.77684,-106.57568 51.85461,-115.47207 51.85461,-115.47207 -0.32984,-31.67366 16.10878,-10.41416 18.72528,-4.35749 19.13088,40.18526 21.5649,80.37053 28.08793,120.55577 -41.26262,16.64495 -68.21168,4.42285 -98.66782,-0.72621 z"
       id="path4295"
       inkscape:connector-curvature="0"
       sodipodi:nodetypes="ccccc" />
    <path
       style="display:inline;fill:#ef0000;fill-opacity:1;fill-rule:evenodd;stroke:none;stroke-width:0.45092702px;stroke-linecap:butt;stroke-linejoin:miter;stroke-opacity:1"
       d="m 707.78514,356.65115 c 59.77685,-106.57568 51.8546,-115.47211 51.8546,-115.47211 -0.32982,-31.67362 16.10879,-10.41411 18.72529,-4.35743 19.13089,40.18526 21.56489,80.3705 28.08789,120.55576 -41.26258,16.64492 -68.21164,4.42283 -98.66778,-0.72622 z"
       id="path4295-3"
       inkscape:connector-curvature="0"
       sodipodi:nodetypes="ccccc" />
    <path
       style="display:inline;fill:#ffcdcd;fill-opacity:1;fill-rule:evenodd;stroke:none;stroke-width:1px;stroke-linecap:butt;stroke-linejoin:miter;stroke-opacity:1"
       d="m 302.22915,382.39082 c 28.66365,15.44464 57.49138,30.6805 77.89593,56.6333 21.64251,5.17229 26.04364,-1.93985 15.89713,-19.41715 -15.62548,-17.98678 -35.91135,-33.72657 -71.53709,-42.07042 -17.94097,-1.38076 -30.58576,-1.2521 -22.25597,4.85427 z"
       id="path4362"
       inkscape:connector-curvature="0"
       sodipodi:nodetypes="ccccc" />
    <path
       style="display:inline;fill:#e1cece;fill-opacity:1;fill-rule:evenodd;stroke:none;stroke-width:1px;stroke-linecap:butt;stroke-linejoin:miter;stroke-opacity:1"
       d="m 386.48391,528.01929 c -26.55813,-0.70263 -37.41082,18.85743 -15.89713,24.2714 126.6055,14.13146 222.82367,8.92405 314.76322,46.9247 35.37227,16.51237 102.15774,9.60143 41.33251,-16.18094 -93.86605,-27.56941 -217.45308,-41.09349 -340.1986,-55.01516 z"
       id="path4364"
       inkscape:connector-curvature="0"
       sodipodi:nodetypes="ccccc" />
    <path
       style="display:inline;fill:#ef0000;fill-opacity:1;stroke:none"
       id="path4421"
       d="m 610.26433,160.91071 c -1.10006,1.22926 -2.18024,2.46794 -3.2026,3.76543 -3.09869,3.65606 -8.56601,7.5971 -8.1783,2.43786 0.11309,-1.15206 0.16835,-2.3081 0.20118,-3.46501 0.0137,-0.7746 0.01,-0.38783 0.0176,-1.16079 0,0 7.43398,-3.8448 7.43398,-3.8448 l 0,0 c -0.01,0.78011 -0.002,0.38963 -0.0137,1.17206 -0.0267,1.16837 -0.0672,2.3367 -0.17011,3.50111 -3e-5,5.6e-4 -0.0694,1.08121 -0.1366,1.06118 -0.0925,-0.0274 -0.0882,-0.28224 -0.17305,-0.23612 -5.38956,2.94136 -9.26445,5.83006 -6.62867,3.87798 0.96961,-1.33844 2.07166,-2.55854 3.16831,-3.78699 0,0 7.68156,-3.32197 7.68156,-3.32197 z"
       inkscape:connector-curvature="0" />
    <path
       style="display:inline;fill:#000000;fill-opacity:1;fill-rule:evenodd;stroke:#000000;stroke-width:4.49075365px;stroke-linecap:butt;stroke-linejoin:miter;stroke-opacity:1"
       d="m 610.41301,156.5833 c -15.60963,-13.52942 -13.8175,34.0783 -20.93629,50.48629 24.4428,20.71352 32.59864,15.59573 43.69925,11.15559 -7.87275,-33.07478 -14.51556,-56.02444 -22.76296,-61.64188 z"
       id="path4425"
       inkscape:connector-curvature="0"
       sodipodi:nodetypes="cccc" />
    <path
       style="display:inline;fill:#000000;fill-opacity:1;fill-rule:evenodd;stroke:#000000;stroke-width:4.49075365px;stroke-linecap:butt;stroke-linejoin:miter;stroke-opacity:1"
       d="m 771.12303,226.17328 c -15.60964,-13.52941 -13.8175,34.07827 -20.93627,50.48631 24.4428,20.7135 32.59864,15.5957 43.69924,11.15558 -7.87274,-33.07481 -14.51558,-56.02445 -22.76297,-61.64189 z"
       id="path4425-8"
       inkscape:connector-curvature="0"
       sodipodi:nodetypes="cccc" />
    <path
       style="display:inline;fill:#ffb15f;fill-opacity:1;fill-rule:evenodd;stroke:none;stroke-width:1px;stroke-linecap:butt;stroke-linejoin:miter;stroke-opacity:1"
       d="m 395.11617,508.24087 c -26.55814,-0.70261 -37.41082,18.85745 -15.89714,24.27137 126.60551,14.13147 222.82368,8.92405 314.76322,46.92473 35.37228,16.51232 102.15774,9.60137 41.33251,-16.18094 -93.86607,-27.56941 -217.45307,-41.09347 -340.19859,-55.01516 z"
       id="path4364-4"
       inkscape:connector-curvature="0"
       sodipodi:nodetypes="ccccc" />
    <path
       style="display:inline;fill:#ffe36b;fill-opacity:1;fill-rule:evenodd;stroke:none;stroke-width:1px;stroke-linecap:butt;stroke-linejoin:miter;stroke-opacity:1"
       d="m 328.63272,377.50016 c 28.66364,15.44463 57.49138,30.68049 77.89593,56.63328 21.64251,5.17229 26.04362,-1.93984 15.89713,-19.41713 -15.62548,-17.98678 -35.91137,-33.72658 -71.53709,-42.07044 -17.941,-1.38074 -30.58577,-1.25208 -22.25597,4.85429 z"
       id="path4362-7"
       inkscape:connector-curvature="0"
       sodipodi:nodetypes="ccccc" />
    <text
       xml:space="preserve"
       style="font-style:normal;font-weight:normal;font-size:165.8152771px;line-height:125%;font-family:sans-serif;letter-spacing:0px;word-spacing:0px;fill:#000000;fill-opacity:1;stroke:none;stroke-width:1px;stroke-linecap:butt;stroke-linejoin:miter;stroke-opacity:1"
       x="252.0443"
       y="734.48944"
       id="text4582"
       sodipodi:linespacing="125%"
       transform="scale(0.97032053,1.0305873)"><tspan
         sodipodi:role="line"
         id="tspan4584"
         x="252.0443"
         y="734.48944" /></text>
    <path
       style="fill:#ebd156;fill-opacity:1;fill-rule:evenodd;stroke:none;stroke-width:1px;stroke-linecap:butt;stroke-linejoin:miter;stroke-opacity:1"
       d="m 219.27421,514.93468 c -18.63055,7.35047 -17.00584,11.62719 -17.00584,11.62719 -30.03404,32.09218 33.84134,24.20774 33.84134,24.20774 44.36145,-17.43884 16.69461,-5.84687 66.13169,-18.76484 z"
       id="path5136"
       inkscape:connector-curvature="0"
       sodipodi:nodetypes="ccccc" />
  </g>
</svg>
