<?xml version="1.0" encoding="UTF-8" standalone="no"?>
<!-- Created with Inkscape (http://www.inkscape.org/) -->

<svg
   xmlns:osb="http://www.openswatchbook.org/uri/2009/osb"
   xmlns:dc="http://purl.org/dc/elements/1.1/"
   xmlns:cc="http://creativecommons.org/ns#"
   xmlns:rdf="http://www.w3.org/1999/02/22-rdf-syntax-ns#"
   xmlns:svg="http://www.w3.org/2000/svg"
   xmlns="http://www.w3.org/2000/svg"
   xmlns:xlink="http://www.w3.org/1999/xlink"
   xmlns:sodipodi="http://sodipodi.sourceforge.net/DTD/sodipodi-0.dtd"
   xmlns:inkscape="http://www.inkscape.org/namespaces/inkscape"
   width="440.91772mm"
   height="275.11261mm"
   viewBox="0 0 1562.307 974.80845"
   id="svg2"
   version="1.1"
   inkscape:version="0.91 r13725"
   sodipodi:docname="akabeko-ohanami.svg">
  <defs
     id="defs4">
    <linearGradient
       inkscape:collect="always"
       id="linearGradient5796">
      <stop
         style="stop-color:#ffbcbb;stop-opacity:1;"
         offset="0"
         id="stop5798" />
      <stop
         style="stop-color:#ffbcbb;stop-opacity:0;"
         offset="1"
         id="stop5800" />
    </linearGradient>
    <linearGradient
       id="linearGradient6812"
       osb:paint="solid">
      <stop
         style="stop-color:#f3c2c2;stop-opacity:1;"
         offset="0"
         id="stop6814" />
    </linearGradient>
    <linearGradient
       id="linearGradient6806"
       osb:paint="solid">
      <stop
         style="stop-color:#ffd0d0;stop-opacity:1;"
         offset="0"
         id="stop6808" />
    </linearGradient>
    <linearGradient
       id="linearGradient6800"
       osb:paint="solid">
      <stop
         style="stop-color:#0a0707;stop-opacity:1;"
         offset="0"
         id="stop6802" />
    </linearGradient>
    <linearGradient
       id="linearGradient6794"
       osb:paint="solid">
      <stop
         style="stop-color:#040101;stop-opacity:1;"
         offset="0"
         id="stop6796" />
    </linearGradient>
    <linearGradient
       id="linearGradient6788"
       osb:paint="solid">
      <stop
         style="stop-color:#0a0707;stop-opacity:1;"
         offset="0"
         id="stop6790" />
    </linearGradient>
    <linearGradient
       id="linearGradient6703"
       osb:paint="solid">
      <stop
         style="stop-color:#ffd2d2;stop-opacity:1;"
         offset="0"
         id="stop6705" />
    </linearGradient>
    <linearGradient
       id="linearGradient6697"
       osb:paint="solid">
      <stop
         style="stop-color:#000000;stop-opacity:1;"
         offset="0"
         id="stop6699" />
    </linearGradient>
    <linearGradient
       id="linearGradient4413"
       osb:paint="gradient">
      <stop
         style="stop-color:#e41c1c;stop-opacity:1;"
         offset="0"
         id="stop4415" />
      <stop
         style="stop-color:#000000;stop-opacity:0;"
         offset="1"
         id="stop4417" />
    </linearGradient>
    <linearGradient
       id="linearGradient4405"
       osb:paint="gradient">
      <stop
         style="stop-color:#000000;stop-opacity:1;"
         offset="0"
         id="stop4407" />
      <stop
         style="stop-color:#000000;stop-opacity:0;"
         offset="1"
         id="stop4409" />
    </linearGradient>
    <linearGradient
       inkscape:collect="always"
       xlink:href="#linearGradient6697"
       id="linearGradient6701"
       x1="504.2861"
       y1="473.5448"
       x2="536.67609"
       y2="473.5448"
       gradientUnits="userSpaceOnUse"
       gradientTransform="matrix(2.5421869,0,0,2.7763845,-802.58987,-909.23691)" />
    <linearGradient
       inkscape:collect="always"
       xlink:href="#linearGradient6703"
       id="linearGradient6707"
       x1="496.80432"
       y1="473.51453"
       x2="544.85168"
       y2="473.51453"
       gradientUnits="userSpaceOnUse"
       gradientTransform="matrix(2.3843314,0,0,2.6569621,-722.9167,-853.14167)" />
    <linearGradient
       gradientTransform="matrix(1.2146713,0,0,1.4133086,-380.7039,-218.78234)"
       inkscape:collect="always"
       xlink:href="#linearGradient6697"
       id="linearGradient6701-4"
       x1="504.2861"
       y1="473.5448"
       x2="536.67609"
       y2="473.5448"
       gradientUnits="userSpaceOnUse" />
    <linearGradient
       inkscape:collect="always"
       xlink:href="#linearGradient6788"
       id="linearGradient6792"
       x1="334.36557"
       y1="454.92902"
       x2="420.18375"
       y2="454.92902"
       gradientUnits="userSpaceOnUse"
       gradientTransform="matrix(0.49912961,0.06644339,-0.07900364,0.63055196,-112.58916,-15.544505)" />
    <linearGradient
       inkscape:collect="always"
       xlink:href="#linearGradient6794"
       id="linearGradient6798"
       x1="347.53873"
       y1="477.47787"
       x2="440.92264"
       y2="477.47787"
       gradientUnits="userSpaceOnUse"
       gradientTransform="matrix(0.49912961,0.06644339,-0.07900364,0.63055196,-104.45307,-19.538011)" />
    <linearGradient
       inkscape:collect="always"
       xlink:href="#linearGradient6800"
       id="linearGradient6804"
       x1="347.53873"
       y1="477.47787"
       x2="440.92264"
       y2="477.47787"
       gradientUnits="userSpaceOnUse"
       gradientTransform="matrix(0.49912961,0.06644339,-0.07900364,0.63055196,-104.45307,-19.538011)" />
    <linearGradient
       inkscape:collect="always"
       xlink:href="#linearGradient6806"
       id="linearGradient6810"
       x1="350.55194"
       y1="462.98331"
       x2="428.3956"
       y2="462.98331"
       gradientUnits="userSpaceOnUse"
       gradientTransform="matrix(0.49912957,0.06644338,-0.07900363,0.63055199,-109.48969,-17.141873)" />
    <linearGradient
       inkscape:collect="always"
       xlink:href="#linearGradient6812"
       id="linearGradient6816"
       x1="377.05515"
       y1="483.21844"
       x2="448.36224"
       y2="483.21844"
       gradientUnits="userSpaceOnUse"
       gradientTransform="matrix(0.49912957,0.06644338,-0.07900363,0.63055199,-104.45306,-20.336666)" />
    <radialGradient
       inkscape:collect="always"
       xlink:href="#linearGradient5796"
       id="radialGradient5802"
       cx="-241.09126"
       cy="194.86357"
       fx="-241.09126"
       fy="194.86357"
       r="328.54367"
       gradientTransform="matrix(1.1551865,0,0,0.97090315,-121.14863,-117.76576)"
       gradientUnits="userSpaceOnUse" />
    <linearGradient
       inkscape:collect="always"
       xlink:href="#linearGradient6703"
       id="linearGradient6707-5"
       x1="496.80432"
       y1="473.51453"
       x2="544.85168"
       y2="473.51453"
       gradientUnits="userSpaceOnUse"
       gradientTransform="matrix(1.310802,0,0,1.7105982,-430.45178,-358.46577)" />
  </defs>
  <sodipodi:namedview
     id="base"
     pagecolor="#ffffff"
     bordercolor="#666666"
     borderopacity="1.0"
     inkscape:pageopacity="0.0"
     inkscape:pageshadow="2"
     inkscape:zoom="0.49497475"
     inkscape:cx="365.82023"
     inkscape:cy="717.96085"
     inkscape:document-units="px"
     inkscape:current-layer="layer1"
     showgrid="false"
     inkscape:window-width="1920"
     inkscape:window-height="1017"
     inkscape:window-x="-8"
     inkscape:window-y="-8"
     inkscape:window-maximized="1"
     showguides="false"
     fit-margin-top="0"
     fit-margin-left="0"
     fit-margin-right="0"
     fit-margin-bottom="0" />
  <metadata
     id="metadata7">
    <rdf:RDF>
      <cc:Work
         rdf:about="">
        <dc:format>image/svg+xml</dc:format>
        <dc:type
           rdf:resource="http://purl.org/dc/dcmitype/StillImage" />
        <dc:title />
      </cc:Work>
    </rdf:RDF>
  </metadata>
  <g
     inkscape:label="Layer 1"
     inkscape:groupmode="layer"
     id="layer1"
     transform="translate(782.1453,250.54004)"
     style="display:inline">
    <path
       style="fill:#4db6c1;fill-opacity:1;fill-rule:evenodd;stroke:#000000;stroke-width:4.16022301;stroke-linecap:butt;stroke-linejoin:miter;stroke-miterlimit:4;stroke-dasharray:none;stroke-opacity:1"
       d="m -16.934661,626.90958 -94.421329,78.01857 889.84952,0.98757 -103.00515,-79.00614 z"
       id="path5809"
       inkscape:connector-curvature="0" />
    <path
       style="fill:#f90000;fill-opacity:1;fill-rule:evenodd;stroke:none;stroke-width:1px;stroke-linecap:butt;stroke-linejoin:miter;stroke-opacity:1"
       d="m 116.5694,280.58444 c -37.012652,75.56837 -37.991742,378.6142 -33.670022,392.08701 6.33828,12.32186 42.728872,14.34823 51.907982,2.95915 9.0764,-11.74922 12.56481,-64.01876 15.43211,-103.57016 l 49.1021,2.95916 c -1.48204,38.39913 -8.00434,85.54583 1.40285,103.57015 6.93459,12.62182 48.32607,17.85979 60.32549,1.47957 9.33058,-12.36416 14.04349,-62.39554 16.83505,-106.5293 73.88701,10.40393 110.07743,16.73543 183.96443,-0.1795 -1.03581,43.53188 0.44805,92.95219 9.23935,104.61637 10.52186,15.26967 46.29633,15.92931 54.7138,3.572 8.57324,-15.71022 12.16867,-75.10656 12.28583,-113.85281 l 34.52104,-0.61286 c 0.49204,39.94848 -3.22858,98.94105 7.496,114.10667 13.00198,14.3407 43.50218,12.6031 52.97047,-1.47958 10.34951,-20.93388 11.92644,-65.47732 14.85104,-114.71952 5.38131,-71.16377 11.41545,-141.11634 0.0499,-212.01238 -17.91764,-54.25873 -18.76689,-55.50682 -52.60943,-86.70377 -44.08379,-41.65859 -442.91833,-47.5167 -478.81794,14.3098 z"
       id="path4215"
       inkscape:connector-curvature="0"
       sodipodi:nodetypes="cccccccccccccccccccc" />
    <path
       style="fill:#ff0202;fill-opacity:1;fill-rule:evenodd;stroke:none;stroke-width:1px;stroke-linecap:butt;stroke-linejoin:miter;stroke-opacity:1"
       d="m -128.12097,377.72161 c 110.616338,3.82483 154.156438,-42.60448 214.250548,-47.9219 4.17181,40.54044 -3.3494,103.86341 -36.41873,143.36638 -70.87446,1.24609 -138.56248,-8.0181 -199.140618,-40.7336 14.22665,-12.9674 22.696,-44.54957 21.3088,-54.71088 z"
       id="path4233"
       inkscape:connector-curvature="0"
       sodipodi:nodetypes="ccccc" />
    <path
       style="fill:#000000;fill-opacity:1;fill-rule:evenodd;stroke:none;stroke-width:1px;stroke-linecap:butt;stroke-linejoin:miter;stroke-opacity:1"
       d="m 117.12422,293.33024 c 24.53743,-7.12025 44.42565,2.89255 68.96309,9.47639 26.35511,11.36416 23.3455,45.58165 30.99464,71.50383 -4.86373,32.35741 3.42497,67.84827 -27.89517,93.90262 -21.03795,9.07812 -24.70896,23.30515 -73.61229,24.12177 -17.280442,-0.688 -23.425012,-15.52552 -26.345462,-34.45966 -4.17796,-52.83816 -1.22289,-105.67637 13.172732,-158.51451 z"
       id="path4316"
       inkscape:connector-curvature="0"
       sodipodi:nodetypes="cccccccc" />
    <path
       style="fill:#ff0000;fill-opacity:1;fill-rule:evenodd;stroke:none;stroke-width:1px;stroke-linecap:butt;stroke-linejoin:miter;stroke-opacity:1"
       d="M -174.0705,407.67282 C -62.489771,534.66587 81.635348,474.76349 81.635348,474.76349 108.82229,431.94218 124.80828,367.04447 118.05405,327.40361 94.638418,304.89295 74.447428,286.45784 4.1487176,283.07587 -29.103358,302.62489 -97.519005,333.35756 -168.64644,342.97825 c -12.85779,14.86575 -15.25991,37.056 -5.42406,64.69457 z"
       id="path4231"
       inkscape:connector-curvature="0"
       sodipodi:nodetypes="cccccc" />
    <path
       style="fill:#ff0000;fill-opacity:1;fill-rule:evenodd;stroke:none;stroke-width:1px;stroke-linecap:butt;stroke-linejoin:miter;stroke-opacity:1"
       d="m -170.79404,344.01087 c -11.15264,11.26726 -9.31154,55.67906 -4.64921,62.29849 5.82515,8.27036 44.68027,30.23268 53.85321,25.159 10.52361,-2.83861 24.685694,-45.92095 21.30882,-55.11021 -8.5368,-18.82939 -44.43742,-37.52427 -70.51282,-32.34728 z"
       id="path4208"
       inkscape:connector-curvature="0"
       sodipodi:nodetypes="csccc" />
    <path
       style="display:inline;fill:#fbce70;fill-opacity:1;fill-rule:evenodd;stroke:none;stroke-width:0.34156123px;stroke-linecap:butt;stroke-linejoin:miter;stroke-opacity:1"
       d="m -159.84232,361.05142 c -14.61097,32.45245 -2.92669,31.08593 -1.15585,26.00439 10.91461,-25.5426 3.42246,-31.36439 1.15585,-26.00439 z"
       id="path4214-9-1-7"
       inkscape:connector-curvature="0"
       sodipodi:nodetypes="ccc" />
    <path
       style="fill:#ff0000;fill-opacity:1;fill-rule:evenodd;stroke:#000000;stroke-width:0.87097251px;stroke-linecap:butt;stroke-linejoin:miter;stroke-opacity:1"
       d="m -160.26392,364.45622 c -9.49758,23.50427 -1.90243,22.51454 -0.75134,18.83415 7.09485,-18.49971 2.22472,-22.71625 0.75134,-18.83415 z"
       id="path4214"
       inkscape:connector-curvature="0"
       sodipodi:nodetypes="ccc" />
    <path
       style="display:inline;fill:#fbce70;fill-opacity:1;fill-rule:evenodd;stroke:none;stroke-width:0.34156123px;stroke-linecap:butt;stroke-linejoin:miter;stroke-opacity:1"
       d="m -128.99947,375.97241 c -14.61095,32.45245 -2.92669,31.0859 -1.15584,26.00438 10.9146,-25.54259 3.42246,-31.36439 1.15584,-26.00438 z"
       id="path4214-9-1"
       inkscape:connector-curvature="0"
       sodipodi:nodetypes="ccc" />
    <path
       style="display:inline;fill:#ff0000;fill-opacity:1;fill-rule:evenodd;stroke:#000000;stroke-width:0.87097251px;stroke-linecap:butt;stroke-linejoin:miter;stroke-opacity:1"
       d="m -129.71783,381.38072 c -9.49756,23.50428 -1.90243,22.51457 -0.75134,18.83417 7.09485,-18.49972 2.22473,-22.71625 0.75134,-18.83417 z"
       id="path4214-9"
       inkscape:connector-curvature="0"
       sodipodi:nodetypes="ccc" />
    <path
       style="display:inline;fill:#e89a9a;fill-opacity:1;fill-rule:evenodd;stroke:none;stroke-width:0.98561388px;stroke-linecap:butt;stroke-linejoin:miter;stroke-opacity:1"
       d="m 16.957378,330.43303 c -48.373471,28.67368 -9.6895704,27.46628 -3.82677,22.97646 36.13572,-22.56844 11.33102,-27.71234 3.82677,-22.97646 z"
       id="path4214-9-2-6-6-9"
       inkscape:connector-curvature="0"
       sodipodi:nodetypes="ccc" />
    <path
       style="display:inline;fill:#050000;fill-opacity:1;fill-rule:evenodd;stroke:none;stroke-width:0.68324649px;stroke-linecap:butt;stroke-linejoin:miter;stroke-opacity:1"
       d="m 15.654538,334.18343 c -33.92129,19.64985 -6.7947004,18.82241 -2.68348,15.74557 25.33973,-15.46598 7.94575,-18.99104 2.68348,-15.74557 z"
       id="path4214-9-2"
       inkscape:connector-curvature="0"
       sodipodi:nodetypes="ccc" />
    <path
       style="display:inline;fill:#e89a9a;fill-opacity:1;fill-rule:evenodd;stroke:none;stroke-width:0.98561388px;stroke-linecap:butt;stroke-linejoin:miter;stroke-opacity:1"
       d="m -19.848342,310.26587 c -48.373471,28.67368 -9.689571,27.46626 -3.82677,22.97644 36.13571,-22.56843 11.33102,-27.71234 3.82677,-22.97644 z"
       id="path4214-9-2-6-6"
       inkscape:connector-curvature="0"
       sodipodi:nodetypes="ccc" />
    <path
       style="display:inline;fill:#050000;fill-opacity:1;fill-rule:evenodd;stroke:none;stroke-width:0.68324649px;stroke-linecap:butt;stroke-linejoin:miter;stroke-opacity:1"
       d="m -21.152092,313.81321 c -33.921292,19.64985 -6.794704,18.82243 -2.68348,15.74558 25.3397196,-15.46596 7.94575,-18.99105 2.68348,-15.74558 z"
       id="path4214-9-2-6"
       inkscape:connector-curvature="0"
       sodipodi:nodetypes="ccc" />
    <path
       style="fill:#ef0000;fill-opacity:1;fill-rule:evenodd;stroke:none;stroke-width:0.45092702px;stroke-linecap:butt;stroke-linejoin:miter;stroke-opacity:1"
       d="M -5.6208324,292.43705 C 23.515918,239.83081 19.654418,235.4395 19.654418,235.4395 c -0.16077,-15.63426 7.85183,-5.14047 9.12718,-2.15086 9.32487,19.83562 10.51126,39.67126 13.69075,59.50688 -20.11243,8.21602 -33.2480904,2.18313 -48.0931804,-0.35847 z"
       id="path4295"
       inkscape:connector-curvature="0"
       sodipodi:nodetypes="ccccc" />
    <path
       style="display:inline;fill:#ef0000;fill-opacity:1;fill-rule:evenodd;stroke:none;stroke-width:0.45092702px;stroke-linecap:butt;stroke-linejoin:miter;stroke-opacity:1"
       d="m 68.549948,327.87692 c 29.13673,-52.60624 25.27524,-56.99755 25.27524,-56.99755 -0.16076,-15.63425 7.851822,-5.14047 9.127192,-2.15086 9.32487,19.83562 10.51125,39.67124 13.69074,59.50687 -20.112432,8.21602 -33.248082,2.18314 -48.093172,-0.35846 z"
       id="path4295-3"
       inkscape:connector-curvature="0"
       sodipodi:nodetypes="ccccc" />
    <path
       style="fill:#ff0000;fill-opacity:1;fill-rule:evenodd;stroke:none;stroke-width:1px;stroke-linecap:butt;stroke-linejoin:miter;stroke-opacity:1"
       d="m 82.420428,448.40643 c 63.146052,-10.38309 62.508232,-13.57785 62.508232,-13.57785 13.4116,-20.95108 19.923,-45.43687 7.01621,-79.86986 -17.00904,-6.22306 -34.01807,-1.74017 -51.02711,2.3961 -3.083372,29.35462 -8.645952,60.03091 -18.497332,91.05161 z"
       id="path4312"
       inkscape:connector-curvature="0"
       sodipodi:nodetypes="ccccc" />
    <path
       style="fill:none;fill-opacity:1;fill-rule:evenodd;stroke:#f70202;stroke-width:1.90762341px;stroke-linecap:butt;stroke-linejoin:miter;stroke-opacity:1"
       d="m 109.80315,338.0607 c 20.11073,-19.37412 30.60999,-8.89348 45.22817,-11.20685 8.63716,18.37346 8.57466,21.73438 11.59697,30.41856 4.63554,29.17234 -1.24606,55.11823 -10.43726,80.04882 -12.89049,23.87093 -21.89309,20.90564 -31.89168,24.81512 -6.77495,-4.39235 -15.09129,-1.62754 -19.71485,-16.00974 -3.39135,-36.02197 -10.571442,-72.04394 5.21865,-108.06591 z"
       id="path4314"
       inkscape:connector-curvature="0"
       sodipodi:nodetypes="ccccccc" />
    <path
       style="fill:#f58181;fill-opacity:1;fill-rule:evenodd;stroke:none;stroke-width:1px;stroke-linecap:butt;stroke-linejoin:miter;stroke-opacity:1"
       d="m 161.69313,279.10412 c 21.14332,-2.30522 38.19023,4.05599 52.54687,5.13994 17.90546,2.88925 17.53056,41.23144 26.60786,55.73508 8.01149,11.21829 11.52941,2.98889 13.73277,-0.48831 3.56548,-24.14572 -14.20176,-60.25377 -24.4105,-66.56951 -16.18689,-15.00613 -44.58393,-10.2897 -64.94706,-7.68421 -22.67092,1.02583 -28.74851,17.25207 -3.52994,13.86701 z"
       id="path4330"
       inkscape:connector-curvature="0"
       sodipodi:nodetypes="ccccccc" />
    <path
       style="fill:#ffcdcd;fill-opacity:1;fill-rule:evenodd;stroke:none;stroke-width:1px;stroke-linecap:butt;stroke-linejoin:miter;stroke-opacity:1"
       d="m -111.77127,340.58215 c 13.971387,7.62354 28.022749,15.14402 37.968441,27.95445 10.54911,2.55305 12.694327,-0.95751 7.748667,-9.58439 -7.616253,-8.87836 -17.504104,-16.6476 -34.868988,-20.76616 -8.74489,-0.68155 -14.90827,-0.61804 -10.84812,2.3961 z"
       id="path4362"
       inkscape:connector-curvature="0"
       sodipodi:nodetypes="ccccc" />
    <path
       style="fill:#e1cece;fill-opacity:1;fill-rule:evenodd;stroke:none;stroke-width:1px;stroke-linecap:butt;stroke-linejoin:miter;stroke-opacity:1"
       d="m -92.39962,412.46502 c -12.94511,-0.34681 -18.23499,9.30812 -7.74867,11.98047 61.710725,6.97536 108.6098976,4.40495 153.423528,23.16224 17.24133,8.15057 49.794272,4.73928 20.14651,-7.98699 C 27.669078,426.01237 -32.570356,419.33683 -92.39962,412.46502 Z"
       id="path4364"
       inkscape:connector-curvature="0"
       sodipodi:nodetypes="ccccc" />
    <path
       style="fill:#000000;fill-opacity:1;fill-rule:evenodd;stroke:#000000;stroke-width:2.20273805px;stroke-linecap:butt;stroke-linejoin:miter;stroke-opacity:1"
       d="m 25.427568,229.12251 c -7.60853,-6.67818 -6.73498,16.82121 -10.20487,24.92028 11.91404,10.22428 15.88939,7.69811 21.30011,5.50644 -3.83737,-16.32587 -7.07525,-27.65393 -11.09524,-30.42672 z"
       id="path4425"
       inkscape:connector-curvature="0"
       sodipodi:nodetypes="cccc" />
    <path
       style="display:inline;fill:#000000;fill-opacity:1;fill-rule:evenodd;stroke:#000000;stroke-width:2.20273805px;stroke-linecap:butt;stroke-linejoin:miter;stroke-opacity:1"
       d="m 99.422428,263.47245 c -7.60853,-6.67818 -6.73499,16.82119 -10.20488,24.92026 11.914052,10.22428 15.889402,7.69812 21.300132,5.50645 -3.83738,-16.32587 -7.07526,-27.65392 -11.095252,-30.42671 z"
       id="path4425-8"
       inkscape:connector-curvature="0"
       sodipodi:nodetypes="cccc" />
    <path
       style="display:inline;fill:#ffb15f;fill-opacity:1;fill-rule:evenodd;stroke:none;stroke-width:1px;stroke-linecap:butt;stroke-linejoin:miter;stroke-opacity:1"
       d="m -88.192043,402.70229 c -12.945117,-0.3468 -18.234987,9.30812 -7.748662,11.98048 61.710717,6.97534 108.609873,4.40495 153.423523,23.16226 17.24133,8.15055 49.794262,4.73927 20.14651,-7.98699 -45.75268,-13.60839 -105.992106,-20.28393 -165.821371,-27.15575 z"
       id="path4364-4"
       inkscape:connector-curvature="0"
       sodipodi:nodetypes="ccccc" />
    <path
       style="display:inline;fill:#ffe36b;fill-opacity:1;fill-rule:evenodd;stroke:none;stroke-width:1px;stroke-linecap:butt;stroke-linejoin:miter;stroke-opacity:1"
       d="m -98.901506,338.16809 c 13.971385,7.62355 28.022746,15.14402 37.96844,27.95445 10.54911,2.55306 12.694327,-0.95751 7.748665,-9.5844 -7.616252,-8.87835 -17.504103,-16.64758 -34.868982,-20.76614 -8.744894,-0.68156 -14.908277,-0.61805 -10.848123,2.39609 z"
       id="path4362-7"
       inkscape:connector-curvature="0"
       sodipodi:nodetypes="ccccc" />
    <path
       style="display:inline;fill:#f7c85c;fill-opacity:1;fill-rule:evenodd;stroke:none;stroke-width:1px;stroke-linecap:butt;stroke-linejoin:miter;stroke-opacity:1"
       d="m 220.20613,258.6799 c 20.98414,-2.3631 28.26936,9.29918 42.51791,10.41033 17.77067,2.96175 21.63703,55.77394 30.64598,70.64157 7.95117,11.49983 9.14133,1.53666 11.32812,-2.02778 3.53864,-24.75169 -21.84353,-70.15229 -31.9754,-76.62655 -16.06502,-15.38273 -20.6644,-16.83732 -40.87425,-14.16644 -22.50023,1.05158 -36.67106,15.23886 -11.64236,11.76887 z"
       id="path4330-6"
       inkscape:connector-curvature="0"
       sodipodi:nodetypes="ccccccc" />
    <path
       style="display:inline;fill:#f8ec5c;fill-opacity:1;fill-rule:evenodd;stroke:none;stroke-width:1px;stroke-linecap:butt;stroke-linejoin:miter;stroke-opacity:1"
       d="m 338.78299,246.87601 c 19.15349,-2.1895 23.34732,0.82633 36.35284,1.85589 16.22034,2.7442 30.19469,57.96784 38.41769,71.74348 7.2575,10.65518 8.1845,4.92921 10.18048,1.62657 3.22993,-22.93375 -17.79641,-70.78379 -27.04437,-76.78252 -14.66353,-14.25288 -34.42155,-8.804 -52.86827,-6.32928 -20.5373,0.97434 -27.88356,11.101 -5.03837,7.88586 z"
       id="path4330-6-4"
       inkscape:connector-curvature="0"
       sodipodi:nodetypes="ccccccc" />
    <path
       style="display:inline;fill:#f58181;fill-opacity:1;fill-rule:evenodd;stroke:none;stroke-width:1px;stroke-linecap:butt;stroke-linejoin:miter;stroke-opacity:1"
       d="m 291.50334,247.99676 c 17.3228,-2.33995 21.74034,3.78456 33.50282,12.79154 0,0 29.50427,64.42919 36.94134,79.15123 6.56385,11.38722 8.55044,-0.90577 10.35566,-4.43534 2.92123,-24.50927 -30.81254,-76.40971 -39.1766,-82.82057 -13.26199,-15.23208 -19.07751,-13.73299 -35.76111,-11.08825 -18.57439,1.04129 -27.07173,5.31931 -5.86211,6.40139 z"
       id="path4330-6-4-3"
       inkscape:connector-curvature="0"
       sodipodi:nodetypes="ccccccc" />
    <path
       style="fill:url(#linearGradient6707);fill-opacity:1;fill-rule:evenodd;stroke:none;stroke-width:1px;stroke-linecap:butt;stroke-linejoin:miter;stroke-opacity:1"
       d="m 519.13747,353.9249 c 85.33856,-0.8697 62.18596,103.85017 2.05583,102.07002 -83.5855,1.0435 -71.21462,-102.30433 -2.05583,-102.07002 z"
       id="path5228"
       inkscape:connector-curvature="0"
       sodipodi:nodetypes="ccc" />
    <path
       style="display:inline;fill:url(#linearGradient6701);fill-opacity:1;fill-rule:evenodd;stroke:#000000;stroke-width:1.78134203px;stroke-linecap:butt;stroke-linejoin:miter;stroke-opacity:1"
       d="m 520.73391,369.93821 c 61.34472,-0.60603 44.70171,72.36325 1.47783,71.12283 -60.08456,0.7271 -51.19189,-71.2861 -1.47783,-71.12283 z"
       id="path5228-1"
       inkscape:connector-curvature="0"
       sodipodi:nodetypes="ccc" />
    <path
       style="display:inline;fill:url(#linearGradient6707-5);fill-opacity:1;fill-rule:evenodd;stroke:none;stroke-width:1px;stroke-linecap:butt;stroke-linejoin:miter;stroke-opacity:1"
       d="m 252.37578,418.66455 c 46.91545,-0.55993 34.18715,66.86053 1.13021,65.71443 -45.95168,0.67183 -39.15072,-65.86529 -1.13021,-65.71443 z"
       id="path5228-2"
       inkscape:connector-curvature="0"
       sodipodi:nodetypes="ccc" />
    <path
       style="display:inline;fill:url(#linearGradient6701-4);fill-opacity:1;fill-rule:evenodd;stroke:#000000;stroke-width:0.87852001px;stroke-linecap:butt;stroke-linejoin:miter;stroke-opacity:1"
       d="m 251.58769,432.37722 c 29.31084,-0.30851 21.35872,36.83623 0.70611,36.20481 -28.70874,0.37014 -24.45977,-36.28795 -0.70611,-36.20481 z"
       id="path5228-1-5"
       inkscape:connector-curvature="0"
       sodipodi:nodetypes="ccc" />
    <path
       style="fill:url(#linearGradient6792);fill-opacity:1;fill-rule:evenodd;stroke:#000000;stroke-width:0.56566453px;stroke-linecap:butt;stroke-linejoin:miter;stroke-opacity:1"
       d="m 52.196308,289.33788 c -39.90427,15.73429 -35.1756,16.91728 -35.1756,16.91728 l 44.16992,-14.47863 z"
       id="path6741"
       inkscape:connector-curvature="0"
       sodipodi:nodetypes="cccc" />
    <path
       style="display:inline;fill:url(#linearGradient6810);fill-opacity:1;fill-rule:evenodd;stroke:none;stroke-width:0.9461062px;stroke-linecap:butt;stroke-linejoin:miter;stroke-opacity:1"
       d="m 62.108578,291.6698 c -37.14147,18.23977 -34.91359,20.05396 -34.91359,20.05396 l 41.72878,-17.7718 z"
       id="path6741-8"
       inkscape:connector-curvature="0"
       sodipodi:nodetypes="cccc" />
    <path
       style="display:inline;fill:url(#linearGradient6804);fill-opacity:1;fill-rule:evenodd;stroke:url(#linearGradient6798);stroke-width:0.68206471px;stroke-linecap:butt;stroke-linejoin:miter;stroke-opacity:1"
       d="m 69.078618,294.29445 c -44.26916,26.5831 -39.85641,29.28201 -39.85641,29.28201 l 48.54586,-25.80049 z"
       id="path6741-8-1"
       inkscape:connector-curvature="0"
       sodipodi:nodetypes="cccc" />
    <path
       style="display:inline;fill:url(#linearGradient6816);fill-opacity:1;fill-rule:evenodd;stroke:none;stroke-width:0.9461062px;stroke-linecap:butt;stroke-linejoin:miter;stroke-opacity:1"
       d="m 77.566938,297.25238 c -34.75112,25.06948 -34.09803,28.94642 -34.09803,28.94642 l 39.86221,-26.39799 z"
       id="path6741-8-19"
       inkscape:connector-curvature="0"
       sodipodi:nodetypes="cccc" />
    <path
       style="fill:#fedcb1;fill-opacity:1;fill-rule:evenodd;stroke:none;stroke-width:1px;stroke-linecap:butt;stroke-linejoin:miter;stroke-opacity:1"
       d="m 152.69008,295.01087 c 11.84897,-15.77431 17.53647,-14.2191 17.53647,-14.2191 -3.53006,1.86977 -6.86489,3.2558 -14.69272,15.77431 z"
       id="path4217"
       inkscape:connector-curvature="0"
       sodipodi:nodetypes="cccc" />
    <path
       style="fill:#72423d;fill-opacity:1;fill-rule:evenodd;stroke:#030303;stroke-width:5.96796846;stroke-linecap:butt;stroke-linejoin:miter;stroke-miterlimit:4;stroke-dasharray:none;stroke-opacity:1"
       d="m -480.2079,698.01383 c 22.92831,20.90915 53.68204,24.2812 84.01785,23.04728 34.85484,-0.0756 58.43107,-12.86149 78.18328,-23.04728 -1.85597,-92.79308 -27.10344,-187.9645 0,-277.81309 39.05482,-122.08827 69.90188,-242.30784 80.51711,-366.264807 -15.28806,2.310262 -25.9045,-12.835474 -35.00744,-33.636565 -4.92649,18.851045 -17.63706,30.147277 -39.6751,32.390769 -4.38882,102.225993 -51.76394,299.163303 -72.3487,302.729063 -19.40571,3.11214 -89.24379,-101.1784 -95.687,-174.4118 -15.63346,1.60696 -29.4249,19.92969 -47.84351,-3.7374 18.37585,24.21439 -0.64724,38.447 -11.66914,54.81513 0.56909,63.74256 49.23197,106.23892 93.35317,150.74164 -27.77429,95.10937 -41.80729,198.5106 -33.84052,315.18706 z"
       id="path4219"
       inkscape:connector-curvature="0"
       sodipodi:nodetypes="ccccccccccccc" />
    <path
       style="fill:url(#radialGradient5802);fill-opacity:1;fill-rule:evenodd;stroke:#000000;stroke-width:5.96796846;stroke-linecap:butt;stroke-linejoin:miter;stroke-miterlimit:4;stroke-dasharray:none;stroke-opacity:1"
       d="m -495.37779,308.07886 c -11.26788,29.08175 -20.58907,60.24181 -46.67659,73.50212 -20.41191,14.92833 -42.86893,11.29806 -67.68104,-13.70379 -24.69706,11.04119 -49.86942,22.97356 -75.84946,8.72059 -20.78072,-14.43582 -42.95611,-16.38028 -17.50372,-88.4517 -29.93726,-16.63054 -58.54535,-35.21222 -71.18179,-77.23952 -14.06819,-40.65898 2.37446,-68.78974 45.50968,-85.96011 -34.53428,-31.045572 -65.5606,-76.330495 -38.50819,-121.4653524 33.99037,-51.3168756 60.64174,-50.9407766 93.35317,-54.1922466 -21.06538,-37.658574 -38.30085,-89.196981 8.75186,-125.202761 56.84467,-43.27272 75.73723,-37.19016 107.35614,-22.42438 24.18086,-24.08746 48.59669,-49.35263 98.60428,-49.20904 41.12865,-0.57824 61.33111,27.27729 86.35169,48.58614 25.68869,-36.40595 64.43696,-37.18126 103.8554,-36.12816 68.18841,16.8675 56.36845,50.26731 81.68403,75.99372 42.89212,-12.93558 90.543776,-47.46657 109.689965,47.34035 37.55119,15.987335 89.535482,19.455033 31.506696,118.3508726 36.3495698,37.8885864 34.592803,88.6448714 -5.83457,135.7920474 -18.062291,55.14008 -58.771841,63.19623 -106.189231,57.30673 -20.49003,20.81016 -6.07326,84.70769 -39.6751,84.09141 -25.87949,2.31967 -46.32005,-24.93365 -66.51413,-42.98005 -18.24684,21.17236 -36.47212,42.3776 -65.34721,47.34035 -36.65163,12.90298 -52.41329,-5.78873 -71.1818,-19.93278 -18.22537,21.23869 -32.04265,47.18343 -61.84647,56.06094 -11.62162,5.51852 -22.6067,1.52337 -32.67361,-16.19538 z"
       id="path4221"
       inkscape:connector-curvature="0"
       sodipodi:nodetypes="ccccccccccccccccccccccccc" />
    <path
       style="fill:#d3af32;fill-opacity:1;fill-rule:evenodd;stroke:none;stroke-width:1px;stroke-linecap:butt;stroke-linejoin:miter;stroke-opacity:1"
       d="m -325.8334,640.03684 c -26.56551,13.07183 -52.78417,27.26609 -84.1652,24.75355 -11.75103,3.81981 -13.79161,28.16424 2.96395,25.9697 30.24172,-2.15277 58.57204,-11.59004 84.90011,-28.6142 8.56949,-3.82903 5.45829,-23.98309 -3.69886,-22.10905 z"
       id="path4223"
       inkscape:connector-curvature="0"
       sodipodi:nodetypes="ccccc" />
    <path
       style="display:inline;fill:#d3af32;fill-opacity:1;fill-rule:evenodd;stroke:none;stroke-width:1px;stroke-linecap:butt;stroke-linejoin:miter;stroke-opacity:1"
       d="m -355.89879,579.45767 c -28.29047,7.93859 -56.42232,17.0469 -86.91541,8.74439 -12.19429,1.57909 -18.17069,25.17332 -1.31304,26.12422 30.13138,3.49672 59.56752,-0.53495 88.26823,-12.4097 9.06277,-2.17905 9.28313,-22.60364 -0.0397,-22.45891 z"
       id="path4223-5"
       inkscape:connector-curvature="0"
       sodipodi:nodetypes="ccccc" />
    <path
       style="display:inline;fill:#d3af32;fill-opacity:1;fill-rule:evenodd;stroke:none;stroke-width:1px;stroke-linecap:butt;stroke-linejoin:miter;stroke-opacity:1"
       d="m -377.83414,514.74751 c -28.98878,4.17526 -57.95446,9.53218 -87.26388,-2.69945 -12.28363,-0.0291 -20.92483,22.60469 -4.3036,25.75518 29.5024,7.41476 59.17947,7.26693 89.02746,-0.76109 9.24466,-0.97624 11.80919,-21.21784 2.54002,-22.29464 z"
       id="path4223-5-6"
       inkscape:connector-curvature="0"
       sodipodi:nodetypes="ccccc" />
    <path
       style="display:inline;fill:#d3af32;fill-opacity:1;fill-rule:evenodd;stroke:none;stroke-width:1px;stroke-linecap:butt;stroke-linejoin:miter;stroke-opacity:1"
       d="m -327.48619,439.60154 c -29.04996,3.65858 -58.0953,8.49906 -87.20957,-4.25267 -12.28147,-0.24783 -21.27501,22.22901 -4.70531,25.67499 29.38247,7.93898 59.05773,8.31951 89.02696,0.82399 9.25863,-0.81151 12.13899,-21.00464 2.88792,-22.24631 z"
       id="path4223-5-6-7"
       inkscape:connector-curvature="0"
       sodipodi:nodetypes="ccccc" />
    <path
       style="display:inline;fill:#d3af32;fill-opacity:1;fill-rule:evenodd;stroke:none;stroke-width:1px;stroke-linecap:butt;stroke-linejoin:miter;stroke-opacity:1"
       d="m -415.84277,637.71263 c -19.73382,2.48447 -39.48367,5.92065 -58.99514,-4.80878 -8.3138,-0.39455 -14.76906,17.56004 -3.60281,20.59768 19.7711,6.85868 39.86296,7.63623 60.28156,2.07702 6.2837,-0.50638 8.5617,-16.7193 2.31639,-17.86592 z"
       id="path4223-5-0"
       inkscape:connector-curvature="0"
       sodipodi:nodetypes="ccccc" />
    <path
       style="display:inline;fill:#d3af32;fill-opacity:1;fill-rule:evenodd;stroke:none;stroke-width:1px;stroke-linecap:butt;stroke-linejoin:miter;stroke-opacity:1"
       d="m -284.04155,288.91589 c -21.41949,3.65858 -42.83557,8.49906 -64.30247,-4.25267 -9.05553,-0.24783 -15.68676,22.22902 -3.46938,25.67499 21.66466,7.93898 43.5452,8.31951 65.64249,0.82399 6.82669,-0.81151 8.95048,-21.00464 2.12936,-22.24631 z"
       id="path4223-5-6-7-8"
       inkscape:connector-curvature="0"
       sodipodi:nodetypes="ccccc" />
    <path
       style="display:inline;fill:#d3af32;fill-opacity:1;fill-rule:evenodd;stroke:none;stroke-width:1px;stroke-linecap:butt;stroke-linejoin:miter;stroke-opacity:1"
       d="m -288.12328,135.28911 c -10.67894,1.22219 -21.5957,3.59871 -28.97279,-11.20635 -4.15126,-1.2354 -11.78052,19.98217 -6.81004,24.68693 8.44365,10.12786 18.5184,12.89979 30.28898,8.0058 3.33171,-0.0434 8.40712,-19.52579 5.49385,-21.48638 z"
       id="path4223-5-6-7-8-2"
       inkscape:connector-curvature="0"
       sodipodi:nodetypes="ccccc" />
    <path
       style="display:inline;fill:#d3af32;fill-opacity:1;fill-rule:evenodd;stroke:none;stroke-width:1px;stroke-linecap:butt;stroke-linejoin:miter;stroke-opacity:1"
       d="m -255.51549,185.88687 c -10.67895,1.22219 -21.5957,3.59871 -28.97279,-11.20635 -4.15126,-1.2354 -11.78053,19.98217 -6.81005,24.68693 8.44365,10.12786 18.5184,12.89979 30.28898,8.0058 3.33172,-0.0434 8.40712,-19.52579 5.49386,-21.48638 z"
       id="path4223-5-6-7-8-2-4"
       inkscape:connector-curvature="0"
       sodipodi:nodetypes="ccccc"
       inkscape:transform-center-x="23.928866"
       inkscape:transform-center-y="-37.879244" />
    <path
       style="display:inline;fill:#d3af32;fill-opacity:1;fill-rule:evenodd;stroke:none;stroke-width:1px;stroke-linecap:butt;stroke-linejoin:miter;stroke-opacity:1"
       d="m -492.13968,277.88449 c -5.82517,9.63316 -10.95918,20.18961 -26.38076,17.0034 -3.51019,2.6691 7.14512,22.34452 13.69723,21.17702 12.68584,-0.64033 21.03999,-7.2603 24.87743,-20.10858 2.06349,-2.79297 -8.93404,-19.25725 -12.1939,-18.07184 z"
       id="path4223-5-6-7-8-2-5"
       inkscape:connector-curvature="0"
       sodipodi:nodetypes="ccccc" />
    <path
       style="display:inline;fill:#d3af32;fill-opacity:1;fill-rule:evenodd;stroke:none;stroke-width:1px;stroke-linecap:butt;stroke-linejoin:miter;stroke-opacity:1"
       d="m -475.23264,211.85316 c -5.82517,9.63316 -10.95917,20.18961 -26.38075,17.0034 -3.5102,2.6691 7.14511,22.34453 13.69723,21.17703 12.68583,-0.64033 21.03999,-7.2603 24.87743,-20.10859 2.06348,-2.79297 -8.93404,-19.25725 -12.19391,-18.07184 z"
       id="path4223-5-6-7-8-2-5-8"
       inkscape:connector-curvature="0"
       sodipodi:nodetypes="ccccc" />
    <path
       style="fill:#ffa0c5;fill-opacity:1;fill-rule:evenodd;stroke:none;stroke-width:1px;stroke-linecap:butt;stroke-linejoin:miter;stroke-opacity:1"
       d="m -134.55972,36.188633 c -15.82432,-14.36961 -50.30591,-16.6054 -62.11825,-9.63369 10.09974,20.77942 30.23332,35.89051 49.62542,44.51373 4.4238,-5.24763 4.6899,-8.58967 -2.97742,-22.89772 6.24624,-0.88929 20.10454,-6.05838 15.47025,-11.98232 z"
       id="path5811"
       inkscape:connector-curvature="0"
       sodipodi:nodetypes="ccccc" />
    <path
       style="display:inline;fill:#ffa0c5;fill-opacity:1;fill-rule:evenodd;stroke:none;stroke-width:1px;stroke-linecap:butt;stroke-linejoin:miter;stroke-opacity:1"
       d="m -607.34145,152.22518 c 20.13973,-7.16145 38.39601,-36.49891 37.82981,-50.2035 -23.08588,-0.91176 -45.91443,9.69784 -62.67411,22.71807 2.53611,6.37775 5.35624,8.19074 21.58917,8.19012 -2.16623,5.92569 -4.15523,20.58229 3.25513,19.29531 z"
       id="path5811-0"
       inkscape:connector-curvature="0"
       sodipodi:nodetypes="ccccc" />
    <path
       style="display:inline;fill:#ff8bc5;fill-opacity:1;fill-rule:evenodd;stroke:none;stroke-width:1px;stroke-linecap:butt;stroke-linejoin:miter;stroke-opacity:1"
       d="m -410.39837,95.128856 c -1.18479,-21.342245 -24.17533,-47.137868 -37.48235,-50.463461 -7.39174,21.889524 -3.6581,46.784629 4.10135,66.538215 6.8343,-0.63254 9.36966,-2.82616 13.95157,-18.399027 5.07316,3.750927 18.57214,9.796547 19.42943,2.324273 z"
       id="path5811-0-4"
       inkscape:connector-curvature="0"
       sodipodi:nodetypes="ccccc" />
    <path
       style="display:inline;fill:#ffb7c5;fill-opacity:1;fill-rule:evenodd;stroke:none;stroke-width:1px;stroke-linecap:butt;stroke-linejoin:miter;stroke-opacity:1"
       d="m -252.62972,718.06582 c 21.28981,1.90768 50.13334,-17.11942 55.34455,-29.80719 -20.59362,-10.47341 -45.76693,-10.37166 -66.43355,-5.54423 -0.36039,6.85404 1.44437,9.67944 16.19296,16.46082 -4.44381,4.47873 -12.37428,16.9639 -5.10396,18.8906 z"
       id="path5811-0-4-4"
       inkscape:connector-curvature="0"
       sodipodi:nodetypes="ccccc" />
    <path
       style="display:inline;fill:#ffb7c5;fill-opacity:1;fill-rule:evenodd;stroke:none;stroke-width:1px;stroke-linecap:butt;stroke-linejoin:miter;stroke-opacity:1"
       d="m -666.65944,310.88694 c 20.1397,-7.16145 38.396,-36.49892 37.8298,-50.20351 -23.0859,-0.91176 -45.9145,9.69784 -62.6741,22.71807 2.5361,6.37776 5.3562,8.19075 21.5891,8.19013 -2.1662,5.92569 -4.1552,20.58229 3.2552,19.29531 z"
       id="path5811-0-6"
       inkscape:connector-curvature="0"
       sodipodi:nodetypes="ccccc" />
    <path
       style="display:inline;fill:#ffb7c5;fill-opacity:1;fill-rule:evenodd;stroke:none;stroke-width:1px;stroke-linecap:butt;stroke-linejoin:miter;stroke-opacity:1"
       d="m -616.80504,329.79274 c 8.368,-19.66899 -0.8572,-52.96876 -11.325,-61.83229 -16.3037,16.37008 -23.9553,40.35261 -25.7234,61.50171 6.4104,2.45259 9.6541,1.60513 20.6459,-10.34008 2.8934,5.6066 12.3315,16.99501 16.4025,10.67066 z"
       id="path5811-0-6-6"
       inkscape:connector-curvature="0"
       sodipodi:nodetypes="ccccc" />
    <path
       style="display:inline;fill:#ffb7c5;fill-opacity:1;fill-rule:evenodd;stroke:none;stroke-width:1px;stroke-linecap:butt;stroke-linejoin:miter;stroke-opacity:1"
       d="m -570.21144,286.72049 c -12.3132,-17.47219 -45.4792,-27.1674 -58.5268,-22.93692 5.3295,22.4808 21.6869,41.61573 38.7342,54.25697 5.4609,-4.1577 6.4488,-7.36142 2.0833,-22.99631 6.2898,0.4931 20.9415,-1.53233 17.7093,-8.32374 z"
       id="path5811-0-6-6-9"
       inkscape:connector-curvature="0"
       sodipodi:nodetypes="ccccc"
       inkscape:transform-center-y="6.0609041" />
    <path
       style="display:inline;fill:#ffb7c5;fill-opacity:1;fill-rule:evenodd;stroke:none;stroke-width:1px;stroke-linecap:butt;stroke-linejoin:miter;stroke-opacity:1"
       d="m -682.65784,233.17424 c 9.9562,18.9147 41.5943,32.80747 55.0787,30.2956 -2.3849,-22.9805 -16.137,-44.06572 -31.4111,-58.80052 -5.9516,3.41842 -7.3446,6.46795 -5.0325,22.53533 -6.1738,-1.30035 -20.9642,-1.18203 -18.6351,5.96959 z"
       id="path5811-0-6-5"
       inkscape:connector-curvature="0"
       sodipodi:nodetypes="ccccc" />
    <path
       style="display:inline;fill:#ffb7c5;fill-opacity:1;fill-rule:evenodd;stroke:none;stroke-width:1px;stroke-linecap:butt;stroke-linejoin:miter;stroke-opacity:1"
       d="m -602.25264,210.87644 c -17.8396,11.77468 -28.5415,44.62963 -24.7109,57.80022 22.6329,-4.64163 42.2577,-20.40794 55.4128,-37.06182 -3.9892,-5.58516 -7.1613,-6.67029 -22.922,-2.78352 0.6846,-6.27197 -0.8931,-20.97848 -7.7799,-17.95488 z"
       id="path5811-0-6-5-7"
       inkscape:connector-curvature="0"
       sodipodi:nodetypes="ccccc" />
    <path
       style="fill:#d1a348;fill-opacity:1;fill-rule:evenodd;stroke:none;stroke-width:1px;stroke-linecap:butt;stroke-linejoin:miter;stroke-opacity:1"
       d="m -651.48284,236.80527 c 3.9176,9.97561 14.7902,20.55706 12.8983,31.27044 -2.1523,8.05503 -16.3631,10.45593 -28.1417,13.99725 11.1042,-0.52206 24.3624,-7.06223 32.5388,0.59562 6.5283,7.1385 -1.2004,19.52803 -1.1726,28.88793 4.0615,-10.29991 7.3722,-26.18122 17.2954,-31.27044 9.0874,-4.2208 17.0022,3.0007 26.0896,3.87158 -6.9371,-5.17487 -19.0494,-8.85059 -19.9336,-17.86882 -1.6699,-9.23311 11.7621,-18.59972 17.2953,-27.10105 -9.6586,7.33088 -19.3338,18.29176 -30.4867,17.2732 -11.0257,-0.65459 -19.2585,-9.48867 -26.3828,-19.65571 z"
       id="path5933"
       inkscape:connector-curvature="0"
       sodipodi:nodetypes="ccccccccccc" />
    <path
       style="display:inline;fill:#ffb7c5;fill-opacity:1;fill-rule:evenodd;stroke:none;stroke-width:1px;stroke-linecap:butt;stroke-linejoin:miter;stroke-opacity:1"
       d="m -575.65167,-0.20376572 c 12.8106,-17.11090028 11.7793,-51.64951028 3.723,-62.75051028 -19.7325,12.0174 -32.8743,33.48837 -39.6271,53.6082703 5.642,3.90835 8.9942,3.85759 22.514,-5.1269603 1.4753,6.1342903 7.9304,19.4423603 13.3901,14.26920028 z"
       id="path5811-0-6-0"
       inkscape:connector-curvature="0"
       sodipodi:nodetypes="ccccc" />
    <path
       style="display:inline;fill:#ffb7c5;fill-opacity:1;fill-rule:evenodd;stroke:none;stroke-width:1px;stroke-linecap:butt;stroke-linejoin:miter;stroke-opacity:1"
       d="m -523.66533,-12.049116 c -3.91614,-21.01324 -30.02924,-43.64248 -43.65324,-45.23143 -4.5192,22.65762 2.381,46.86706 12.6132,65.4603803 6.6965,-1.50508 8.9291,-4.00613 11.473,-20.0384903 5.5128,3.0683203 19.67655,7.3300803 19.56704,-0.19046 z"
       id="path5811-0-6-6-95"
       inkscape:connector-curvature="0"
       sodipodi:nodetypes="ccccc" />
    <path
       style="display:inline;fill:#ffb7c5;fill-opacity:1;fill-rule:evenodd;stroke:none;stroke-width:1px;stroke-linecap:butt;stroke-linejoin:miter;stroke-opacity:1"
       d="m -508.69635,-73.710396 c -19.9254,-7.73765 -52.91462,2.54295 -61.44042,13.28759 16.8807,15.77435 41.0947,22.65861 62.28941,23.75255 2.24724,-6.4852 1.29696,-9.70028 -10.99207,-20.30628 5.51159,-3.07037 16.59381,-12.86624 10.14308,-16.73386 z"
       id="path5811-0-6-6-9-9"
       inkscape:connector-curvature="0"
       sodipodi:nodetypes="ccccc"
       inkscape:transform-center-y="3.0689984"
       inkscape:transform-center-x="4.2515142" />
    <path
       style="display:inline;fill:#ffb7c5;fill-opacity:1;fill-rule:evenodd;stroke:none;stroke-width:1px;stroke-linecap:butt;stroke-linejoin:miter;stroke-opacity:1"
       d="m -631.98627,-56.075286 c 18.7606,10.24356 52.8004,4.30467 62.6412,-5.25032 -14.7048,-17.8202 -37.8282,-27.77073 -58.7047,-31.58974 -3.0651,6.14104 -2.5376,9.4519 8.2806,21.55456 -5.8618,2.33382 -18.115,10.61806 -12.2171,15.2855 z"
       id="path5811-0-6-5-3"
       inkscape:connector-curvature="0"
       sodipodi:nodetypes="ccccc" />
    <path
       style="display:inline;fill:#ffb7c5;fill-opacity:1;fill-rule:evenodd;stroke:none;stroke-width:1px;stroke-linecap:butt;stroke-linejoin:miter;stroke-opacity:1"
       d="m -577.35857,-119.14672 c -8.3417,19.680214 0.9283,52.967544 11.4079,61.817104 16.2817,-16.39203 23.9012,-40.38483 25.6408,-61.536244 -6.4136,-2.44399 -9.6561,-1.59219 -20.6319,10.36774 -2.901,-5.60272 -12.3543,-16.97838 -16.4168,-10.6486 z"
       id="path5811-0-6-5-7-7"
       inkscape:connector-curvature="0"
       sodipodi:nodetypes="ccccc" />
    <path
       style="display:inline;fill:#d1a348;fill-opacity:1;fill-rule:evenodd;stroke:none;stroke-width:1px;stroke-linecap:butt;stroke-linejoin:miter;stroke-opacity:1"
       d="m -604.01147,-70.304726 c 8.7839,6.14036 23.6957,8.9361 28.0493,18.90618 2.6654,7.9001 -7.8418,17.76468 -15.6921,27.23301 8.9596,-6.58039 16.3825,-19.36529 27.4307,-17.51238 9.3881,2.33249 9.8079,16.92897 15.0113,24.7093 -2.3177,-10.82646 -8.3497,-25.88606 -2.9014,-35.61675 5.2328,-8.54482 15.8216,-6.91056 23.87233,-11.2146 -8.64183,-0.47076 -20.76433,3.17129 -26.49183,-3.85051 -6.5009,-6.76593 -0.4975,-22.00112 -0.594,-32.14408 -3.9872,11.45129 -5.9793,25.93515 -15.8321,31.25933 -9.5454,5.55693 -21.2916,2.75556 -32.8522,-1.7695 z"
       id="path5933-9"
       inkscape:connector-curvature="0"
       sodipodi:nodetypes="ccccccccccc" />
    <path
       style="display:inline;fill:#ffb7c5;fill-opacity:1;fill-rule:evenodd;stroke:none;stroke-width:1px;stroke-linecap:butt;stroke-linejoin:miter;stroke-opacity:1"
       d="m -430.59332,-68.604633 c 19.9495,7.67547 52.9064,-2.70808 61.3987,-13.47924 -16.93,-15.72153 -41.1653,-22.530217 -62.3633,-23.557967 -2.227,6.492127 -1.2667,9.704227 11.0554,20.271757 -5.502,3.08764 -16.5535,12.91803 -10.0908,16.76545 z"
       id="path5811-0-6-0-3"
       inkscape:connector-curvature="0"
       sodipodi:nodetypes="ccccc" />
    <path
       style="display:inline;fill:#ffb7c5;fill-opacity:1;fill-rule:evenodd;stroke:none;stroke-width:1px;stroke-linecap:butt;stroke-linejoin:miter;stroke-opacity:1"
       d="m -405.05902,-21.797683 c 19.1567,-9.4821 33.8332,-40.76432 31.6579,-54.30708 -23.0328,1.81171 -44.4539,15.03453 -59.5646,29.93679 3.2692,6.03498 6.283,7.50343 22.4031,5.59226 -1.4538,6.13938 -1.7038,20.92834 5.5036,18.77803 z"
       id="path5811-0-6-6-95-8"
       inkscape:connector-curvature="0"
       sodipodi:nodetypes="ccccc" />
    <path
       style="display:inline;fill:#ffb7c5;fill-opacity:1;fill-rule:evenodd;stroke:none;stroke-width:1px;stroke-linecap:butt;stroke-linejoin:miter;stroke-opacity:1"
       d="m -341.65082,-24.158453 c 2.0284,-21.2786 -16.8347,-50.22962 -29.4927,-55.51272 -10.5901,20.53379 -10.6312,45.70738 -5.9211,66.40101 6.852,0.3993 9.6875,-1.38939 16.5525,-16.09929 4.4533,4.46912 16.8934,12.47038 18.8613,5.211 z"
       id="path5811-0-6-6-9-9-3"
       inkscape:connector-curvature="0"
       sodipodi:nodetypes="ccccc"
       inkscape:transform-center-y="-1.5931221"
       inkscape:transform-center-x="-1.3682671" />
    <path
       style="display:inline;fill:#ffb7c5;fill-opacity:1;fill-rule:evenodd;stroke:none;stroke-width:1px;stroke-linecap:butt;stroke-linejoin:miter;stroke-opacity:1"
       d="m -392.14422,-138.0084 c -4.7566,20.83904 10.214,51.981597 22.0848,58.853627 13.1505,-18.99614 16.4389,-43.953937 14.4377,-65.082307 -6.7431,-1.27987 -9.7858,0.12799 -18.491,13.82935 -3.8398,-5.00639 -15.1436,-14.54545 -18.0315,-7.60067 z"
       id="path5811-0-6-5-3-6"
       inkscape:connector-curvature="0"
       sodipodi:nodetypes="ccccc" />
    <path
       style="display:inline;fill:#ffb7c5;fill-opacity:1;fill-rule:evenodd;stroke:none;stroke-width:1px;stroke-linecap:butt;stroke-linejoin:miter;stroke-opacity:1"
       d="m -316.59562,-102.58803 c -21.2069,-2.67634 -50.7196,15.295297 -56.3863,27.786287 20.2015,11.21127 45.3621,12.02002 66.1896,7.94297 0.6081,-6.83649 -1.0933,-9.72523 -15.587,-17.03559 4.6029,-4.31509 12.9796,-16.505297 5.7837,-18.693667 z"
       id="path5811-0-6-5-7-7-9"
       inkscape:connector-curvature="0"
       sodipodi:nodetypes="ccccc" />
    <path
       style="display:inline;fill:#d1a348;fill-opacity:1;fill-rule:evenodd;stroke:none;stroke-width:1px;stroke-linecap:butt;stroke-linejoin:miter;stroke-opacity:1"
       d="m -370.84452,-114.95655 c -3.5206,10.12254 -2.1565,25.232697 -10.5672,32.133157 -6.8777,4.71304 -19.2276,-2.71611 -30.4737,-7.69619 8.7686,6.83282 23.0901,10.49983 24.3111,21.6356 0.308,9.66861 -13.6244,14.0414 -19.6968,21.16425 9.7884,-5.17411 22.6405,-15.07359 33.486,-12.47635 9.6457,2.71231 10.9521,13.34653 17.283,19.92365 -1.8967,-8.44422 -8.6977,-19.11973 -3.4978,-26.54069 4.7435,-8.09564 21.037,-6.4609 30.7716,-9.31165 -12.104,-0.72336 -26.5838,1.29778 -34.3864,-6.73616 -7.943,-7.67484 -8.441,-19.740197 -7.2298,-32.095617 z"
       id="path5933-9-4"
       inkscape:connector-curvature="0"
       sodipodi:nodetypes="ccccccccccc" />
    <path
       style="display:inline;fill:#ffb7c5;fill-opacity:1;fill-rule:evenodd;stroke:none;stroke-width:1px;stroke-linecap:butt;stroke-linejoin:miter;stroke-opacity:1"
       d="m -162.45652,-112.76134 c -17.9756,11.56611 -29.0595,44.294112 -25.3826,57.5084 22.6854,-4.377659 42.4925,-19.914247 55.8408,-36.413812 -3.9239,-5.631209 -7.0831,-6.753224 -22.888,-3.050293 0.7576,-6.263505 -0.6488,-20.987445 -7.5702,-18.044295 z"
       id="path5811-0-6-0-3-8"
       inkscape:connector-curvature="0"
       sodipodi:nodetypes="ccccc"
       inkscape:transform-center-x="268.31534"
       inkscape:transform-center-y="-30.495264" />
    <path
       style="display:inline;fill:#ffb7c5;fill-opacity:1;fill-rule:evenodd;stroke:none;stroke-width:1px;stroke-linecap:butt;stroke-linejoin:miter;stroke-opacity:1"
       d="m -215.30892,-119.79819 c -3.6614,21.059049 12.9154,51.377095 25.129,57.619583 12.1404,-19.657122 14.1203,-44.752663 11.0183,-65.747613 -6.8008,-0.92587 -9.7657,0.63901 -17.7434,14.77641 -4.0959,-4.79893 -15.8827,-13.73457 -18.4039,-6.64838 z"
       id="path5811-0-6-6-95-8-1"
       inkscape:connector-curvature="0"
       sodipodi:nodetypes="ccccc"
       inkscape:transform-center-x="304.88814"
       inkscape:transform-center-y="-41.455781" />
    <path
       style="display:inline;fill:#ffb7c5;fill-opacity:1;fill-rule:evenodd;stroke:none;stroke-width:1px;stroke-linecap:butt;stroke-linejoin:miter;stroke-opacity:1"
       d="m -250.85072,-67.234364 c 15.9737,14.203364 50.4767,16.078638 62.2155,8.983821 -10.3163,-20.672688 -30.6068,-35.572585 -50.0879,-43.992597 -4.3688,5.293663 -4.5999,8.63822 3.2165,22.865394 -6.2365,0.954436 -20.0401,6.26815 -15.3441,12.143382 z"
       id="path5811-0-6-6-9-9-3-6"
       inkscape:connector-curvature="0"
       sodipodi:nodetypes="ccccc"
       inkscape:transform-center-y="-24.532182"
       inkscape:transform-center-x="328.26617" />
    <path
       style="display:inline;fill:#ffb7c5;fill-opacity:1;fill-rule:evenodd;stroke:none;stroke-width:1px;stroke-linecap:butt;stroke-linejoin:miter;stroke-opacity:1"
       d="m -129.15542,-40.74571 c -14.0077,-16.145398 -47.9806,-22.45613 -60.5367,-16.934947 7.5633,21.83081 25.762,39.22381 43.9941,50.0866101 5.0151,-4.6857401 5.6759,-7.9726001 -0.2399,-23.0891801 6.3078,-0.14206 20.6814,-3.63062 16.7825,-10.062483 z"
       id="path5811-0-6-5-3-6-7"
       inkscape:connector-curvature="0"
       sodipodi:nodetypes="ccccc"
       inkscape:transform-center-x="267.13876"
       inkscape:transform-center-y="20.087525" />
    <path
       style="display:inline;fill:#ffb7c5;fill-opacity:1;fill-rule:evenodd;stroke:none;stroke-width:1px;stroke-linecap:butt;stroke-linejoin:miter;stroke-opacity:1"
       d="m -202.35582,-0.69708687 c 14.6839,-15.53315013 17.6103,-49.96301213 10.8768,-61.91275313 -20.9778,9.681336 -36.4895,29.508003 -45.4994,48.723313 5.1578,4.5281501 8.4938,4.8611401 22.9527,-2.51783 0.7639,6.26284 5.6542,20.2218901 11.6699,15.70727013 z"
       id="path5811-0-6-5-7-7-9-5"
       inkscape:connector-curvature="0"
       sodipodi:nodetypes="ccccc"
       inkscape:transform-center-x="320.55581"
       inkscape:transform-center-y="22.492002" />
    <path
       style="display:inline;fill:#d1a348;fill-opacity:1;fill-rule:evenodd;stroke:none;stroke-width:1px;stroke-linecap:butt;stroke-linejoin:miter;stroke-opacity:1"
       d="m -160.33692,-37.170817 c -6.0896,-8.819136 -19.0889,-16.641909 -19.6904,-27.504433 0.2584,-8.333592 13.5471,-13.912385 24.2075,-20.04677 -10.6924,3.040903 -22.1095,12.432555 -31.817,6.841452 -7.9843,-5.461425 -3.2851,-19.28713 -5.447,-28.394012 -1.6052,10.954783 -1.2065,27.172589 -9.7075,34.390924 -7.8852,6.182155 -17.2384,0.956169 -26.2849,2.180886 7.9345,3.456277 20.566,4.272575 23.4837,12.851415 3.7317,8.608975 -7.2099,20.792198 -10.6584,30.331468 7.732,-9.34059 14.6523,-22.219227 25.7436,-23.771236 10.8843,-1.877383 20.915,4.846158 30.1704,13.120306 z"
       id="path5933-9-4-9"
       inkscape:connector-curvature="0"
       sodipodi:nodetypes="ccccccccccc"
       inkscape:transform-center-x="300.49317"
       inkscape:transform-center-y="-12.693148" />
    <path
       style="display:inline;fill:#ffb7c5;fill-opacity:1;fill-rule:evenodd;stroke:none;stroke-width:1px;stroke-linecap:butt;stroke-linejoin:miter;stroke-opacity:1"
       d="m -156.4405,99.697855 c -17.9756,11.566105 -29.0595,44.294115 -25.3826,57.508395 22.6854,-4.37765 42.4925,-19.91424 55.8408,-36.41381 -3.9239,-5.63121 -7.0831,-6.75323 -22.888,-3.0503 0.7576,-6.2635 -0.6488,-20.987435 -7.5702,-18.044285 z"
       id="path5811-0-6-0-3-8-2"
       inkscape:connector-curvature="0"
       sodipodi:nodetypes="ccccc"
       inkscape:transform-center-x="268.31534"
       inkscape:transform-center-y="-30.495264" />
    <path
       style="display:inline;fill:#ffb7c5;fill-opacity:1;fill-rule:evenodd;stroke:none;stroke-width:1px;stroke-linecap:butt;stroke-linejoin:miter;stroke-opacity:1"
       d="m -209.2929,92.661005 c -3.6614,21.059045 12.9154,51.377095 25.129,57.619585 12.1404,-19.65713 14.1203,-44.75267 11.0183,-65.747615 -6.8008,-0.92587 -9.7657,0.63901 -17.7434,14.77641 -4.0959,-4.79893 -15.8827,-13.73457 -18.4039,-6.64838 z"
       id="path5811-0-6-6-95-8-1-0"
       inkscape:connector-curvature="0"
       sodipodi:nodetypes="ccccc"
       inkscape:transform-center-x="304.88814"
       inkscape:transform-center-y="-41.455781" />
    <path
       style="display:inline;fill:#ffb7c5;fill-opacity:1;fill-rule:evenodd;stroke:none;stroke-width:1px;stroke-linecap:butt;stroke-linejoin:miter;stroke-opacity:1"
       d="m -244.8347,145.22483 c 15.9737,14.20336 50.4767,16.07864 62.2155,8.98382 -10.3163,-20.67269 -30.6068,-35.57259 -50.0879,-43.9926 -4.3688,5.29366 -4.5999,8.63822 3.2165,22.8654 -6.2365,0.95443 -20.0401,6.26815 -15.3441,12.14338 z"
       id="path5811-0-6-6-9-9-3-6-7"
       inkscape:connector-curvature="0"
       sodipodi:nodetypes="ccccc"
       inkscape:transform-center-y="-24.532182"
       inkscape:transform-center-x="328.26617" />
    <path
       style="display:inline;fill:#ffb7c5;fill-opacity:1;fill-rule:evenodd;stroke:none;stroke-width:1px;stroke-linecap:butt;stroke-linejoin:miter;stroke-opacity:1"
       d="m -123.1394,171.71349 c -14.0077,-16.1454 -47.9806,-22.45614 -60.5367,-16.93495 7.5633,21.83081 25.762,39.22381 43.9941,50.08661 5.0151,-4.68574 5.6759,-7.9726 -0.2399,-23.08918 6.3078,-0.14206 20.6814,-3.63062 16.7825,-10.06248 z"
       id="path5811-0-6-5-3-6-7-1"
       inkscape:connector-curvature="0"
       sodipodi:nodetypes="ccccc"
       inkscape:transform-center-x="267.13876"
       inkscape:transform-center-y="20.087525" />
    <path
       style="display:inline;fill:#ffb7c5;fill-opacity:1;fill-rule:evenodd;stroke:none;stroke-width:1px;stroke-linecap:butt;stroke-linejoin:miter;stroke-opacity:1"
       d="m -196.3398,211.76211 c 14.6839,-15.53315 17.6103,-49.96301 10.8768,-61.91276 -20.9778,9.68134 -36.4895,29.50801 -45.4994,48.72332 5.1578,4.52815 8.4938,4.86114 22.9527,-2.51783 0.7639,6.26284 5.6542,20.22189 11.6699,15.70727 z"
       id="path5811-0-6-5-7-7-9-5-3"
       inkscape:connector-curvature="0"
       sodipodi:nodetypes="ccccc"
       inkscape:transform-center-x="320.55581"
       inkscape:transform-center-y="22.492002" />
    <path
       style="display:inline;fill:#d1a348;fill-opacity:1;fill-rule:evenodd;stroke:none;stroke-width:1px;stroke-linecap:butt;stroke-linejoin:miter;stroke-opacity:1"
       d="m -154.3209,175.28838 c -6.0896,-8.81914 -19.0889,-16.64191 -19.6904,-27.50444 0.2584,-8.33359 13.5471,-13.91238 24.2075,-20.04677 -10.6924,3.0409 -22.1095,12.43256 -31.817,6.84145 -7.9843,-5.46142 -3.2851,-19.28713 -5.447,-28.39401 -1.6052,10.95478 -1.2065,27.17259 -9.7075,34.39093 -7.8852,6.18215 -17.2384,0.95617 -26.2849,2.18088 7.9345,3.45628 20.566,4.27258 23.4837,12.85142 3.7317,8.60898 -7.2099,20.7922 -10.6584,30.33147 7.732,-9.34059 14.6523,-22.21923 25.7436,-23.77124 10.8843,-1.87738 20.915,4.84616 30.1704,13.12031 z"
       id="path5933-9-4-9-9"
       inkscape:connector-curvature="0"
       sodipodi:nodetypes="ccccccccccc"
       inkscape:transform-center-x="300.49317"
       inkscape:transform-center-y="-12.693148" />
    <path
       style="display:inline;fill:#ffb7c5;fill-opacity:1;fill-rule:evenodd;stroke:none;stroke-width:1px;stroke-linecap:butt;stroke-linejoin:miter;stroke-opacity:1"
       d="m 41.834595,105.83215 c 11.178632,18.21904 43.661925,30.00106 56.951846,26.60781 -3.89099,-22.77389 -19.000017,-42.909014 -35.210027,-56.607513 -5.713945,3.802438 -6.903321,6.936992 -3.539557,22.817582 -6.245929,-0.891537 -20.996595,0.199177 -18.202262,7.182121 z"
       id="path5811-0-4-4-7"
       inkscape:connector-curvature="0"
       sodipodi:nodetypes="ccccc" />
    <path
       style="display:inline;fill:#ffb7c5;fill-opacity:1;fill-rule:evenodd;stroke:none;stroke-width:1px;stroke-linecap:butt;stroke-linejoin:miter;stroke-opacity:1"
       d="M 60.725174,4.2804967 C 39.906176,9.1245363 18.457185,36.21553 17.473938,49.896501 40.30965,53.406481 64.189248,45.439613 82.310622,34.392921 80.51009,27.769794 77.912465,25.650282 61.783064,23.819866 64.60387,18.176311 68.233416,3.837631 60.725174,4.2804967 Z"
       id="path5811-0-4-4-7-9"
       inkscape:connector-curvature="0"
       sodipodi:nodetypes="ccccc"
       inkscape:transform-center-x="71.038846"
       inkscape:transform-center-y="54.787563" />
    <path
       style="display:inline;fill:#ffb7c5;fill-opacity:1;fill-rule:evenodd;stroke:none;stroke-width:1px;stroke-linecap:butt;stroke-linejoin:miter;stroke-opacity:1"
       d="m 188.8439,-33.803918 c -16.52691,-13.555688 -51.07734,-14.054698 -62.52414,-6.497812 11.13189,20.245266 31.99987,34.3248083 51.80108,41.9619622 4.15433,-5.4634498 4.25202,-8.8146378 -4.12509,-22.7190222 6.19363,-1.202286 19.77445,-7.061694 14.84815,-12.745128 z"
       id="path5811-0-4-4-7-9-6"
       inkscape:connector-curvature="0"
       sodipodi:nodetypes="ccccc"
       inkscape:transform-center-x="92.449444"
       inkscape:transform-center-y="-16.46399" />
    <path
       style="display:inline;fill:#ffb7c5;fill-opacity:1;fill-rule:evenodd;stroke:none;stroke-width:1px;stroke-linecap:butt;stroke-linejoin:miter;stroke-opacity:1"
       d="m -275.06621,456.97286 c 11.17864,18.21904 43.66193,30.00106 56.95185,26.60781 -3.89099,-22.77389 -19.00001,-42.90902 -35.21002,-56.60752 -5.71395,3.80244 -6.90333,6.93699 -3.53956,22.81758 -6.24593,-0.89153 -20.9966,0.19918 -18.20227,7.18213 z"
       id="path5811-0-4-4-7-3"
       inkscape:connector-curvature="0"
       sodipodi:nodetypes="ccccc" />
    <path
       style="display:inline;fill:#ffb7c5;fill-opacity:1;fill-rule:evenodd;stroke:none;stroke-width:1px;stroke-linecap:butt;stroke-linejoin:miter;stroke-opacity:1"
       d="m -106.81145,592.98823 c -8.29476,19.70006 1.0545,52.96525 11.55522,61.78971 16.242585,-16.43073 23.804762,-40.44155 25.494112,-61.59715 -6.419455,-2.42869 -9.66001,-1.56914 -20.607204,10.41698 -2.914362,-5.59581 -12.394738,-16.94898 -16.442128,-10.60954 z"
       id="path5811-0-4-4-7-3-1"
       inkscape:connector-curvature="0"
       sodipodi:nodetypes="ccccc" />
  </g>
</svg>
